<?xml version="1.0" encoding="UTF-8"?>
<svg width="20px" height="20px" viewBox="0 0 20 20" version="1.1" xmlns="http://www.w3.org/2000/svg" xmlns:xlink="http://www.w3.org/1999/xlink">
    <!-- Generator: Sketch 43.2 (39069) - http://www.bohemiancoding.com/sketch -->
    <title>icon-location</title>
    <desc>Created with Sketch.</desc>
    <defs></defs>
    <g id="Exports" stroke="none" stroke-width="1" fill="none" fill-rule="evenodd">
        <g id="icon-location" fill="#FFFFFF">
            <path d="M10,9.56 C10.3733352,9.56 10.7199984,9.4666676 11.04,9.28 C11.3600016,9.0933324 11.6133324,8.8433349 11.8,8.53 C11.9866676,8.2166651 12.08,7.8733352 12.08,7.5 C12.08,7.1266648 11.9866676,6.7800016 11.8,6.46 C11.6133324,6.1399984 11.3600016,5.8866676 11.04,5.7 C10.7199984,5.5133324 10.3733352,5.42 10,5.42 C9.6266648,5.42 9.2833349,5.5133324 8.97,5.7 C8.6566651,5.8866676 8.4066676,6.1399984 8.22,6.46 C8.0333324,6.7800016 7.94,7.1266648 7.94,7.5 C7.94,8.0733362 8.139998,8.559998 8.54,8.96 C8.940002,9.360002 9.4266638,9.56 10,9.56 Z M10,1.68 C11.066672,1.68 12.0466622,1.9399974 12.94,2.46 C13.8200044,2.9800026 14.5199974,3.6799956 15.04,4.56 C15.5600026,5.4533378 15.82,6.433328 15.82,7.5 C15.82,8.3133374 15.620002,9.2466614 15.22,10.3 C14.8733316,11.1933378 14.3933364,12.1599948 13.78,13.2 C13.2733308,14.0266708 12.6933366,14.8866622 12.04,15.78 C11.5866644,16.4066698 11.1066692,17.019997 10.6,17.62 L10,18.32 L9.4,17.62 C8.8933308,17.019997 8.4133356,16.4066698 7.96,15.78 C7.3066634,14.8866622 6.7266692,14.0266708 6.22,13.2 C5.6066636,12.1599948 5.1266684,11.1933378 4.78,10.3 C4.379998,9.2466614 4.18,8.3133374 4.18,7.5 C4.18,6.433328 4.4399974,5.4533378 4.96,4.56 C5.4800026,3.6799956 6.1799956,2.9800026 7.06,2.46 C7.9533378,1.9399974 8.933328,1.68 10,1.68 Z" id="place---material"></path>
        </g>
    </g>
</svg>