<?xml version="1.0" encoding="UTF-8"?>
<svg width="20px" height="22px" viewBox="0 0 20 22" version="1.1" xmlns="http://www.w3.org/2000/svg" xmlns:xlink="http://www.w3.org/1999/xlink">
    <!-- Generator: Sketch 43.2 (39069) - http://www.bohemiancoding.com/sketch -->
    <title>icon-mail</title>
    <desc>Created with Sketch.</desc>
    <defs></defs>
    <g id="Exports" stroke="none" stroke-width="1" fill="none" fill-rule="evenodd">
        <g id="icon-mail" fill="#FFFFFF">
            <path d="M16.68,7.68 L16.68,6 L10,10.18 L3.32,6 L3.32,7.68 L10,11.82 L16.68,7.68 Z M16.68,4.32 C17.1333356,4.32 17.5199984,4.486665 17.84,4.82 C18.1600016,5.153335 18.32,5.5466644 18.32,6 L18.32,16 C18.32,16.4533356 18.1600016,16.846665 17.84,17.18 C17.5199984,17.513335 17.1333356,17.68 16.68,17.68 L3.32,17.68 C2.8666644,17.68 2.4800016,17.513335 2.16,17.18 C1.8399984,16.846665 1.68,16.4533356 1.68,16 L1.68,6 C1.68,5.5466644 1.8399984,5.153335 2.16,4.82 C2.4800016,4.486665 2.8666644,4.32 3.32,4.32 L16.68,4.32 Z" id="email---material"></path>
        </g>
    </g>
</svg>