<?xml version="1.0" encoding="UTF-8"?>
<svg width="20px" height="20px" viewBox="0 0 20 20" version="1.1" xmlns="http://www.w3.org/2000/svg" xmlns:xlink="http://www.w3.org/1999/xlink">
    <!-- Generator: Sketch 48.2 (47327) - http://www.bohemiancoding.com/sketch -->
    <title>icon-telegram</title>
    <desc>Created with Sketch.</desc>
    <defs></defs>
    <g id="Exports" stroke="none" stroke-width="1" fill="none" fill-rule="evenodd">
        <g id="icon-telegram" fill="#FFFFFF">
            <path d="M15.3234133,18.4859391 C15.5918006,18.6759773 15.9377035,18.7234868 16.2460989,18.6067967 C16.5544942,18.4892731 16.7812065,18.2258868 16.8495535,17.9066559 C17.5738659,14.502638 19.3308859,5.88673852 19.9901852,2.79028245 C20.0401952,2.55690218 19.9568451,2.3143534 19.7734749,2.15848872 C19.5901047,2.00262404 19.3358869,1.95761498 19.1091747,2.04179858 C15.6143051,3.33539207 4.85130721,7.37370423 0.452089133,9.00153161 C0.17286631,9.10488573 -0.00883689912,9.37327304 0.000331611453,9.66749888 C0.010333623,9.96255822 0.208706852,10.218443 0.494597682,10.3042936 C2.46749446,10.8944123 5.05718194,11.7154107 5.05718194,11.7154107 C5.05718194,11.7154107 6.26742534,15.3703125 6.89838557,17.2290196 C6.97756816,17.4623999 7.16010487,17.6457701 7.40098665,17.7091162 C7.64103493,17.7716287 7.89775322,17.7057822 8.07695593,17.5365815 C9.0904931,16.5797224 10.6574749,15.1002581 10.6574749,15.1002581 C10.6574749,15.1002581 13.6347403,17.2831972 15.3234133,18.4859391 Z M6.1465677,11.2536512 L7.54601582,15.8695795 L7.85691167,12.9464917 C7.85691167,12.9464917 13.2638324,8.06967754 16.346119,5.28995183 C16.4361371,5.20826873 16.4486396,5.07157458 16.3736245,4.97572197 C16.2994429,4.87986936 16.1627488,4.85736483 16.0602281,4.9223779 C12.487843,7.20367004 6.1465677,11.2536512 6.1465677,11.2536512 Z" id="telegram-1"></path>
        </g>
    </g>
</svg>