<?xml version="1.0" encoding="UTF-8"?>
<svg width="20px" height="22px" viewBox="0 0 20 22" version="1.1" xmlns="http://www.w3.org/2000/svg" xmlns:xlink="http://www.w3.org/1999/xlink">
    <!-- Generator: Sketch 43.2 (39069) - http://www.bohemiancoding.com/sketch -->
    <title>icon-fb</title>
    <desc>Created with Sketch.</desc>
    <defs></defs>
    <g id="Exports" stroke="none" stroke-width="1" fill="none" fill-rule="evenodd">
        <g id="icon-fb" fill="#FFFFFF">
            <path d="M17.1941964,2.28571429 C17.4546144,2.28571429 17.6778265,2.37871931 17.8638393,2.56473214 C18.0498521,2.75074498 18.1428571,2.97395703 18.1428571,3.234375 L18.1428571,18.4799107 C18.1428571,18.7403287 18.0498521,18.9635407 17.8638393,19.1495536 C17.6778265,19.3355664 17.4546144,19.4285714 17.1941964,19.4285714 L12.8303571,19.4285714 L12.8303571,12.7879464 L15.0513393,12.7879464 L15.3861607,10.1986607 L12.8303571,10.1986607 L12.8303571,8.546875 C12.8303571,8.13020625 12.9177819,7.81770938 13.0926339,7.609375 C13.267486,7.40104063 13.6078844,7.296875 14.1138393,7.296875 L15.4754464,7.28571429 L15.4754464,4.97544643 C15.0066941,4.90848181 14.3444983,4.875 13.4888393,4.875 C12.4769295,4.875 11.6677858,5.17261607 11.0613839,5.76785714 C10.4549821,6.36309821 10.1517857,7.20386362 10.1517857,8.29017857 L10.1517857,10.1986607 L7.91964286,10.1986607 L7.91964286,12.7879464 L10.1517857,12.7879464 L10.1517857,19.4285714 L1.94866071,19.4285714 C1.68824275,19.4285714 1.46503069,19.3355664 1.27901786,19.1495536 C1.09300502,18.9635407 1,18.7403287 1,18.4799107 L1,3.234375 C1,2.97395703 1.09300502,2.75074498 1.27901786,2.56473214 C1.46503069,2.37871931 1.68824275,2.28571429 1.94866071,2.28571429 L17.1941964,2.28571429 Z" id="facebook-official---FontAwesome"></path>
        </g>
    </g>
</svg>