<?xml version="1.0" encoding="UTF-8"?>
<svg width="20px" height="20px" viewBox="0 0 20 20" version="1.1" xmlns="http://www.w3.org/2000/svg" xmlns:xlink="http://www.w3.org/1999/xlink">
    <!-- Generator: Sketch 43.2 (39069) - http://www.bohemiancoding.com/sketch -->
    <title>icon-phone</title>
    <desc>Created with Sketch.</desc>
    <defs></defs>
    <g id="Exports" stroke="none" stroke-width="1" fill="none" fill-rule="evenodd">
        <g id="icon-phone" fill="#FFFFFF">
            <path d="M17.7142857,14.4107143 C17.7142857,14.6116081 17.6770837,14.8738823 17.6026786,15.1975446 C17.5282734,15.521207 17.4501492,15.7760407 17.3683036,15.9620536 C17.2120528,16.3340792 16.7581883,16.7284205 16.0066964,17.1450893 C15.3072882,17.5245555 14.6153308,17.7142857 13.9308036,17.7142857 C13.7299097,17.7142857 13.5345992,17.701265 13.3448661,17.6752232 C13.155133,17.6491814 12.9412214,17.6026789 12.703125,17.5357143 C12.4650286,17.4687497 12.288319,17.4148068 12.1729911,17.3738839 C12.0576631,17.3329611 11.851192,17.256697 11.5535714,17.1450893 C11.2559509,17.0334816 11.073661,16.966518 11.0066964,16.9441964 C10.2775261,16.6837785 9.62649096,16.3750018 9.05357143,16.0178571 C8.10118571,15.4300566 7.11719258,14.6283533 6.1015625,13.6127232 C5.08593242,12.5970931 4.28422913,11.6131 3.69642857,10.6607143 C3.33928393,10.0877948 3.03050725,9.4367596 2.77008929,8.70758929 C2.74776775,8.64062467 2.68080413,8.45833482 2.56919643,8.16071429 C2.45758873,7.86309375 2.38132461,7.6566226 2.34040179,7.54129464 C2.29947896,7.42596669 2.24553605,7.24925714 2.17857143,7.01116071 C2.11160681,6.77306429 2.0651043,6.55915273 2.0390625,6.36941964 C2.0130207,6.17968655 2,5.984376 2,5.78348214 C2,5.09895491 2.18973025,4.40699754 2.56919643,3.70758929 C2.98586518,2.95609743 3.38020647,2.50223292 3.75223214,2.34598214 C3.93824498,2.2641365 4.19307874,2.18601228 4.51674107,2.11160714 C4.8404034,2.03720201 5.10267757,2 5.30357143,2 C5.40773862,2 5.48586283,2.0111606 5.53794643,2.03348214 C5.67187567,2.07812522 5.86904632,2.36086049 6.12946429,2.88169643 C6.21130993,3.02306618 6.32291596,3.22395703 6.46428571,3.484375 C6.60565547,3.74479297 6.7358625,3.98102573 6.85491071,4.19308036 C6.97395893,4.40513499 7.08928516,4.60416574 7.20089286,4.79017857 C7.2232144,4.81994062 7.28831791,4.91294565 7.39620536,5.06919643 C7.5040928,5.22544721 7.58407712,5.35751434 7.63616071,5.46540179 C7.68824431,5.57328923 7.71428571,5.67931496 7.71428571,5.78348214 C7.71428571,5.93229241 7.60825999,6.11830246 7.39620536,6.34151786 C7.18415073,6.56473326 6.95349827,6.76934431 6.70424107,6.95535714 C6.45498387,7.14136998 6.22433142,7.33854062 6.01227679,7.546875 C5.80022215,7.75520937 5.69419643,7.92633862 5.69419643,8.06026786 C5.69419643,8.12723248 5.71279743,8.210937 5.75,8.31138393 C5.78720257,8.41183086 5.81882427,8.48809498 5.84486607,8.54017857 C5.87090787,8.59226217 5.92299068,8.68154699 6.00111607,8.80803571 C6.07924146,8.93452444 6.12202377,9.00520826 6.12946429,9.02008929 C6.6949433,10.0394396 7.34225826,10.9136868 8.07142857,11.6428571 C8.80059888,12.3720275 9.67484609,13.0193424 10.6941964,13.5848214 C10.7090775,13.5922619 10.7797613,13.6350443 10.90625,13.7131696 C11.0327387,13.791295 11.1220235,13.8433778 11.1741071,13.8694196 C11.2261907,13.8954614 11.3024549,13.9270831 11.4029018,13.9642857 C11.5033487,14.0014883 11.5870532,14.0200893 11.6540179,14.0200893 C11.7879471,14.0200893 11.9590763,13.9140636 12.1674107,13.7020089 C12.3757451,13.4899543 12.5729157,13.2593018 12.7589286,13.0100446 C12.9449414,12.7607874 13.1495525,12.530135 13.3727679,12.3180804 C13.5959833,12.1060257 13.7819933,12 13.9308036,12 C14.0349708,12 14.1409965,12.0260414 14.2488839,12.078125 C14.3567714,12.1302086 14.4888385,12.2101929 14.6450893,12.3180804 C14.8013401,12.4259678 14.8943451,12.4910713 14.9241071,12.5133929 C15.11012,12.6250006 15.3091507,12.7403268 15.5212054,12.859375 C15.73326,12.9784232 15.9694927,13.1086302 16.2299107,13.25 C16.4903287,13.3913698 16.6912195,13.5029758 16.8325893,13.5848214 C17.3534252,13.8452394 17.6361605,14.04241 17.6808036,14.1763393 C17.7031251,14.2284229 17.7142857,14.3065471 17.7142857,14.4107143 Z" id="phone---FontAwesome"></path>
        </g>
    </g>
</svg>