<?xml version="1.0" encoding="UTF-8"?>
<svg width="160px" height="60px" viewBox="0 0 160 60" version="1.1" xmlns="http://www.w3.org/2000/svg" xmlns:xlink="http://www.w3.org/1999/xlink">
    <!-- Generator: Sketch 43.2 (39069) - http://www.bohemiancoding.com/sketch -->
    <title>logo-white</title>
    <desc>Created with Sketch.</desc>
    <defs></defs>
    <g id="Exports" stroke="none" stroke-width="1" fill="none" fill-rule="evenodd">
        <g id="logo-white">
            <g id="logo-horizontal-white" transform="translate(15.000000, 18.000000)">
                <g id="logo-horizontal">
                    <path d="M97.2977032,4.02549677 C96.5419355,4.35855484 95.8841806,4.84289032 95.3242839,5.4788129 C94.7643871,6.11473548 94.325729,6.88877419 94.0086194,7.80092903 C93.6915097,8.71308387 93.5328,9.74818065 93.5328,10.906529 L93.5328,13.1547871 C93.5328,14.3129806 93.6836129,15.3482323 93.9850839,16.2602323 C94.2867097,17.1725419 94.7154581,17.9427097 95.271329,18.5710452 C95.8273548,19.1993806 96.4968774,19.68 97.2800516,20.0130581 C98.0632258,20.3461161 98.9402323,20.5128774 99.9112258,20.5128774 C100.63169,20.5128774 101.305239,20.4484645 101.931871,20.3196387 C102.558194,20.1909677 103.124129,20.0225032 103.629058,19.8144 C104.134297,19.6062968 104.570942,19.3734194 104.938994,19.1160774 C105.30689,18.8587355 105.596748,18.6052645 105.808258,18.3553548 L105.796335,11.8375742 L99.6763355,11.8375742 L99.6763355,14.2220903 L102.507252,14.2220903 L102.495639,17.2199226 C102.409548,17.3182452 102.282271,17.4108387 102.113806,17.4980129 C101.945497,17.5850323 101.751639,17.6627613 101.532387,17.7307355 C101.312981,17.7988645 101.078245,17.8519742 100.827561,17.8897548 C100.577032,17.9276903 100.322477,17.9465806 100.064052,17.9465806 C98.9832774,17.9389935 98.1805935,17.5244903 97.656,16.703071 C97.1312516,15.8818065 96.864929,14.6989935 96.8571871,13.1547871 L96.8571871,10.8837677 C96.8571871,10.1041548 96.9355355,9.41713548 97.0920774,8.82286452 C97.2487742,8.22859355 97.460129,7.73094194 97.7264516,7.32975484 C97.9926194,6.92856774 98.3058581,6.62369032 98.6661677,6.41574194 C99.0263226,6.20748387 99.4179097,6.10343226 99.840929,6.10343226 C100.717935,6.10343226 101.365935,6.31710968 101.784929,6.74477419 C102.203768,7.17259355 102.468232,7.81037419 102.577858,8.65811613 L105.796335,8.65811613 C105.710245,7.86332903 105.52831,7.14797419 105.250219,6.51205161 C104.972284,5.87628387 104.586426,5.33698065 104.09311,4.8939871 C103.599794,4.45114839 102.994839,4.11236129 102.278245,3.87778065 C101.561652,3.64304516 100.721961,3.52567742 99.7587097,3.52567742 C98.8736516,3.52567742 98.053471,3.69228387 97.2977032,4.02549677 Z M113.829523,3.75282581 L113.829523,20.285729 L125.353084,20.285729 L125.353084,17.7079742 L117.142142,17.7079742 L117.142142,13.0411355 L124.166555,13.0411355 L124.166555,10.5203613 L117.142142,10.5203613 L117.142142,6.35303226 L125.317781,6.35303226 L125.317781,3.75282581 L113.829523,3.75282581 Z M74.4579097,3.75282581 L80.1903484,3.75282581 C81.1378065,3.75282581 81.9954581,3.86074839 82.7628387,4.07643871 C83.5302194,4.29212903 84.1861161,4.60830968 84.7303742,5.02467097 C85.2746323,5.44103226 85.6936258,5.9595871 85.9872,6.58018065 C86.280929,7.20092903 86.4277161,7.92015484 86.4277161,8.73770323 C86.4277161,9.32825806 86.3554065,9.85997419 86.2104774,10.3330065 C86.0655484,10.8061935 85.8580645,11.2301419 85.587871,11.6048516 C85.3178323,11.9795613 84.992671,12.3068903 84.6128516,12.5869935 C84.2331871,12.8670968 83.8083097,13.1092645 83.3383742,13.3138065 L87.0151742,20.1380129 L87.0151742,20.285729 L83.4794323,20.285729 L80.2606452,14.1085935 L77.7587613,14.1085935 L77.7587613,20.285729 L74.4579097,20.285729 L74.4579097,3.75282581 Z M77.7587613,6.34188387 L77.7587613,11.5196903 L80.2021161,11.5196903 C81.1339355,11.5196903 81.8523871,11.290529 82.3576258,10.832671 C82.8625548,10.3748129 83.1152516,9.74833548 83.1152516,8.95354839 C83.1152516,8.1284129 82.8685935,7.48676129 82.3751226,7.02890323 C81.8818065,6.57073548 81.1536,6.34188387 80.1903484,6.34188387 L77.7587613,6.34188387 Z M55.0541419,3.75282581 L55.0541419,20.285729 L66.5773935,20.285729 L66.5773935,17.7079742 L58.3666065,17.7079742 L58.3666065,13.0411355 L65.3911742,13.0411355 L65.3911742,10.5203613 L58.3666065,10.5203613 L58.3666065,6.35303226 L66.5424,6.35303226 L66.5424,3.75282581 L55.0541419,3.75282581 Z M42.7921548,3.75282581 L40.947871,9.96402581 L39.3268645,3.75282581 L35.2272,3.75282581 L35.2272,20.285729 L38.2578581,20.285729 L38.2578581,15.3915871 L38.1169548,7.96552258 L40.1256774,14.8352516 L41.7582968,14.8352516 L44.0020645,7.65894194 L43.8611613,15.3915871 L43.8611613,20.285729 L46.8918194,20.285729 L46.8918194,3.75282581 L42.7921548,3.75282581 Z" id="Clip-2" fill="#FFFFFF"></path>
                    <path d="M12.313951,19.6198297 L14.3781058,17.4008361 L18.6581574,21.6810426 L16.5941574,23.9000361 L12.313951,19.6198297 Z M9.30653419,-7.74193548e-05 L15.6999794,6.39352258 L10.8917729,6.39352258 L10.8917729,15.2160774 L2.27314065,23.8935484 L-4.64516129e-05,21.6875613 L7.64016,13.9268903 L7.64016,6.39352258 L2.94699871,6.39352258 L9.30653419,-7.74193548e-05 Z" id="Combined-Shape" fill="#50E3C2"></path>
                </g>
            </g>
        </g>
    </g>
</svg>