<?xml version="1.0" encoding="UTF-8"?>
<svg width="331px" height="145px" viewBox="0 0 331 145" version="1.1" xmlns="http://www.w3.org/2000/svg" xmlns:xlink="http://www.w3.org/1999/xlink">
    <!-- Generator: Sketch 54.1 (76490) - https://sketchapp.com -->
    <title>CX Lettermark</title>
    <desc>Created with Sketch.</desc>
    <g id="Splash-screens" stroke="none" stroke-width="1" fill="none" fill-rule="evenodd">
        <g id="iPhone-8-Copy" transform="translate(-22.000000, -89.000000)">
            <g id="CX-Lettermark" transform="translate(22.000000, 89.000000)">
                <g id="Group-2">
                    <path d="M5.00321597,115.33739 C5.05931828,110.911501 5.86968345,106.350916 7.43358629,101.655812 C8.9964898,96.9611304 11.24576,92.5234332 14.1810728,88.3427525 C17.1148641,84.1627127 20.6550069,80.4647661 24.8017399,77.2487459 C28.9471282,74.0332922 33.6643613,71.7160974 38.9545893,70.2966673 C45.29056,68.5966521 50.7673542,68.5683712 55.3866943,70.2111675 C60.0081119,71.8530886 63.4388127,74.7466784 65.6785992,78.8921503 L51.81516,93.3980126 C51.2148993,91.7958914 50.4117261,90.5534668 49.405626,89.6706972 C48.3997076,88.7878511 47.2839245,88.1718826 46.0582041,87.8227895 C44.8326133,87.4736419 43.5589855,87.340865 42.2372274,87.424478 C40.9155249,87.5080676 39.6387309,87.7152545 38.4067652,88.0460623 C35.8196373,88.7407588 33.5808416,89.9015603 31.6900665,91.5286045 C29.7989657,93.155786 28.2427459,95.0322589 27.021354,97.1580823 C25.7996276,99.2840467 24.8831445,101.565483 24.2719737,104.002419 C23.6605968,106.439441 23.3421809,108.780777 23.3168709,111.02643 C23.2884931,113.544284 23.6006774,115.868791 24.2536149,117.999947 C24.9067945,120.131 25.8719388,121.906736 27.1491602,123.327175 C28.426735,124.747464 30.0018803,125.731498 31.8746076,126.27932 C33.7476409,126.827014 35.8580586,126.785092 38.2056944,126.15365 C39.4412922,125.821312 40.709279,125.327647 42.009647,124.672661 C43.3099538,124.017701 44.5658132,123.171232 45.7772092,122.133251 C46.9884727,121.095326 48.0779689,119.88671 49.0457056,118.507378 C50.0132767,117.128115 50.7823277,115.547946 51.3529009,113.766815 L66,119.491542 C64.9901139,122.407783 63.4721428,125.1895 61.445855,127.836855 C59.4189149,130.484485 57.1160278,132.867366 54.5371906,134.985542 C51.9577892,137.103955 49.1954424,138.932565 46.250237,140.471356 C43.3046933,142.010289 40.4398999,143.154469 37.6560247,143.903822 C32.768777,145.219353 28.3108125,145.350878 24.282999,144.297978 C20.2565215,143.244515 16.7960795,141.343129 13.9017669,138.593679 C11.0090534,135.843556 8.78794159,132.437631 7.23799863,128.375956 C5.68916668,124.313814 4.94452432,119.967551 5.00321597,115.33739 Z M82.6776829,131.329318 C80.3024738,131.994558 78.0825249,132.164936 76.0179808,131.840365 C73.9537185,131.515671 72.1813014,130.779343 70.7007285,129.631335 C69.220507,128.483173 68.0623629,126.949638 67.2262054,125.030707 C66.3903245,123.111656 65.9818683,120.899326 66.0006171,118.393741 C66.0214491,115.609759 66.5572302,112.924819 67.6077082,110.338958 C68.6578287,107.753255 70.1003005,105.370416 71.9350911,103.190405 C73.7694227,101.010595 75.9499631,99.1160063 78.4768641,97.5065446 C81.0034211,95.8972336 83.7849282,94.6680458 86.8217267,93.8188312 C90.7088287,92.7318366 93.9240368,92.5270288 96.467849,93.2042257 L96.4765278,91.5355191 C96.4899078,88.962917 95.8471507,87.2333671 94.5484224,86.3467364 C93.2499407,85.4599976 91.1439522,85.4238641 88.2302089,86.2384161 C85.4985745,87.0020586 82.9763015,88.2106053 80.6630507,89.864208 C78.3494487,91.5179647 75.9109236,93.6754425 73.3471035,96.3368371 L68.427035,85.4196557 C74.7690174,78.994262 81.9709149,74.6556499 90.0362742,72.4022293 C97.677141,70.2674098 103.550208,70.5703173 107.657472,73.310163 C111.767164,76.0489448 113.807724,81.3092965 113.777395,89.0921737 L113.735963,99.7240867 C113.728652,101.600316 113.96682,102.835164 114.450514,103.428649 C114.934262,104.022111 115.784089,104.218102 117,104.016636 L116.939139,120.692336 C115.53718,121.432037 114.211629,122.063579 112.962477,122.586967 C111.713291,123.110369 110.601481,123.508529 109.627036,123.781448 C106.520993,124.651376 104.164009,124.669367 102.556248,123.835319 C100.948798,123.001134 99.9078366,121.400825 99.4332349,119.034386 L99.0779267,117.155229 C96.9317385,120.880341 94.4536943,123.952136 91.6439558,126.370601 C88.8335284,128.789368 85.8446284,130.442332 82.6776829,131.329318 Z M89.5961849,116.715749 C90.6250611,116.421063 91.685262,115.92304 92.7767724,115.221685 C93.8682199,114.520358 94.8392162,113.729862 95.6897775,112.850178 C96.3583615,112.093298 96.9061403,111.318025 97.3331407,110.524332 C97.7600988,109.730659 97.9753576,108.979954 97.9789551,108.272181 L98,104.131732 C96.9740907,104.001391 95.8571828,103.967773 94.6492323,104.03088 C93.4413326,104.093965 92.3536595,104.263984 91.3861423,104.54096 C89.2696986,105.146845 87.5125748,106.250663 86.1145323,107.852532 C84.7162418,109.454512 84.0113855,111.17605 84.0001281,113.017113 C83.9906026,114.574935 84.5122727,115.697867 85.5652707,116.385891 C86.6184239,117.073845 87.9620874,117.183779 89.5961849,116.715749 Z M155.987443,72.1230519 C152.714192,73.0738877 149.738065,74.3622874 147.058717,75.9884048 C144.379032,77.6146757 142.382635,79.6076948 141.06943,81.967538 L141.009903,115.050833 L124,120 L124.170587,64.1929742 L139.68376,59.6898691 L139.663557,70.2940015 C141.335801,66.0637089 143.406974,62.5832873 145.87728,59.8525681 C148.346847,57.1221854 151.007707,55.3431174 153.860494,54.5150584 C154.989722,54.187285 155.702883,54.015601 156,54 L155.987443,72.1230519 Z M183.540673,102.833077 C179.459035,103.987736 175.820478,104.285553 172.625429,103.726301 C169.4311,103.16673 166.754837,101.933125 164.596648,100.02541 C162.439294,98.1173241 160.799985,95.6883532 159.678466,92.7385141 C158.557512,89.788425 157.998171,86.5094275 158.000004,82.9016108 C158.001976,79.021506 158.549552,75.19153 159.642309,71.4117619 C160.734483,67.6322523 162.356512,64.1456662 164.508239,60.95199 C166.659108,57.7586939 169.310054,54.9518316 172.46124,52.531281 C175.611682,50.1110604 179.277542,48.3110217 183.459488,47.1308636 C187.582534,45.9673275 191.235895,45.7017115 194.420244,46.3337579 C197.605345,46.9654713 200.27697,48.2521717 202.435271,50.1938661 C204.594418,52.1351854 206.22504,54.6336944 207.326976,57.6895611 C208.429478,60.7451768 208.98722,64.1075875 208.999793,67.7770823 C209.003286,68.7963864 208.96256,69.8451748 208.877603,70.9234838 C208.792631,72.0017992 208.69248,72.9653585 208.577145,73.8141908 L175.890733,83.0520528 C176.070421,85.8592461 176.987915,87.6582807 178.643424,88.44913 C180.299254,89.2398373 182.102264,89.3594831 184.052267,88.8081776 C185.884089,88.2902846 187.611631,87.3256186 189.234767,85.91423 C190.857665,84.502947 191.93307,82.8723013 192.461086,81.0222113 L206.740786,81.6794529 C204.863262,86.4956964 201.962347,90.8192271 198.037655,94.650307 C194.111317,98.482116 189.278626,101.209861 183.540673,102.833077 Z M192,66.9927765 C191.688093,64.6892646 190.825913,63.0249497 189.413587,61.9997219 C188.001586,60.9743665 186.192993,60.7377265 183.98751,61.2898907 C181.782026,61.8420549 179.975668,62.9837991 178.568135,64.7152532 C177.160277,66.4468352 176.30419,68.5417497 176,71 L192,66.9927765 Z M249,47.1151276 C245.719938,48.0684984 242.740504,49.3590175 240.061355,50.986839 C237.381867,52.6148145 235.390939,54.6087618 234.088475,56.968757 L234.254025,90.0376385 L217.208724,95 L217,39.2171892 L232.545457,34.7020786 L232.597392,45.3015925 C234.247612,41.0716427 236.303487,37.5908771 238.765219,34.8591267 C241.226212,32.1277137 243.885752,30.3470271 246.744476,29.5167604 C247.876054,29.1881132 248.590939,29.0158618 248.889156,29 L249,47.1151276 Z M255.39599,83 L255,29.715425 L273.527197,25 L274,78.2539043 L255.39599,83 Z M255.122771,25 L255,7.94829846 L273.853414,3 L274,20.0418866 L255.122771,25 Z M297.317962,17.9861379 L304.18318,29.1443655 L305.103593,31.0150537 L305.979612,28.6484717 L312.572125,13.7777538 L329.890088,9 L314.394505,39.8820859 L331,61.8974213 L313.610239,66.7062511 L306.174771,55.7103473 L305.343531,53.9164902 L304.554571,56.1581284 L297.391808,71.1911701 L280.002047,76 L296.051563,44.9485705 L280,22.7638917 L297.317962,17.9861379 Z" id="Mask" fill="#0008E0" fill-rule="nonzero"></path>
                    <path d="M0.0032159708,112.33739 C0.0593182819,107.911501 0.869683445,103.350916 2.43358629,98.6558125 C3.9964898,93.9611304 6.24576003,89.5234332 9.18107282,85.3427525 C12.1148641,81.1627127 15.6550069,77.4647661 19.8017399,74.2487459 C23.9471282,71.0332922 28.6643613,68.7160974 33.9545893,67.2966673 C40.29056,65.5966521 45.7673542,65.5683712 50.3866943,67.2111675 C55.0081119,68.8530886 58.4388127,71.7466784 60.6785992,75.8921503 L46.81516,90.3980126 C46.2148993,88.7958914 45.4117261,87.5534668 44.405626,86.6706972 C43.3997076,85.7878511 42.2839245,85.1718826 41.0582041,84.8227895 C39.8326133,84.4736419 38.5589855,84.340865 37.2372274,84.424478 C35.9155249,84.5080676 34.6387309,84.7152545 33.4067652,85.0460623 C30.8196373,85.7407588 28.5808416,86.9015603 26.6900665,88.5286045 C24.7989657,90.155786 23.2427459,92.0322589 22.021354,94.1580823 C20.7996276,96.2840467 19.8831445,98.5654829 19.2719737,101.002419 C18.6605968,103.439441 18.3421809,105.780777 18.3168709,108.02643 C18.2884931,110.544284 18.6006774,112.868791 19.2536149,114.999947 C19.9067945,117.131 20.8719388,118.906736 22.1491602,120.327175 C23.426735,121.747464 25.0018803,122.731498 26.8746076,123.27932 C28.7476409,123.827014 30.8580586,123.785092 33.2056944,123.15365 C34.4412922,122.821312 35.709279,122.327647 37.009647,121.672661 C38.3099538,121.017701 39.5658132,120.171232 40.7772092,119.133251 C41.9884727,118.095326 43.0779689,116.88671 44.0457056,115.507378 C45.0132767,114.128115 45.7823277,112.547946 46.3529009,110.766815 L61,116.491542 C59.9901139,119.407783 58.4721428,122.1895 56.445855,124.836855 C54.4189149,127.484485 52.1160278,129.867366 49.5371906,131.985542 C46.9577892,134.103955 44.1954424,135.932565 41.250237,137.471356 C38.3046933,139.010289 35.4398999,140.154469 32.6560247,140.903822 C27.768777,142.219353 23.3108125,142.350878 19.282999,141.297978 C15.2565215,140.244515 11.7960795,138.343129 8.90176687,135.593679 C6.00905342,132.843556 3.78794159,129.437631 2.23799863,125.375956 C0.68916668,121.313814 -0.0554756777,116.967551 0.0032159708,112.33739 Z M77.6776829,128.329318 C75.3024738,128.994558 73.0825249,129.164936 71.0179808,128.840365 C68.9537185,128.515671 67.1813014,127.779343 65.7007285,126.631335 C64.220507,125.483173 63.0623629,123.949638 62.2262054,122.030707 C61.3903245,120.111656 60.9818683,117.899326 61.0006171,115.393741 C61.0214491,112.609759 61.5572302,109.924819 62.6077082,107.338958 C63.6578287,104.753255 65.1003005,102.370416 66.9350911,100.190405 C68.7694227,98.0105949 70.9499631,96.1160063 73.4768641,94.5065446 C76.0034211,92.8972336 78.7849282,91.6680458 81.8217267,90.8188312 C85.7088287,89.7318366 88.9240368,89.5270288 91.467849,90.2042257 L91.4765278,88.5355191 C91.4899078,85.962917 90.8471507,84.2333671 89.5484224,83.3467364 C88.2499407,82.4599976 86.1439522,82.4238641 83.2302089,83.2384161 C80.4985745,84.0020586 77.9763015,85.2106053 75.6630507,86.864208 C73.3494487,88.5179647 70.9109236,90.6754425 68.3471035,93.3368371 L63.427035,82.4196557 C69.7690174,75.994262 76.9709149,71.6556499 85.0362742,69.4022293 C92.677141,67.2674098 98.5502082,67.5703173 102.657472,70.310163 C106.767164,73.0489448 108.807724,78.3092965 108.777395,86.0921737 L108.735963,96.7240867 C108.728652,98.600316 108.96682,99.8351637 109.450514,100.428649 C109.934262,101.022111 110.784089,101.218102 112,101.016636 L111.939139,117.692336 C110.53718,118.432037 109.211629,119.063579 107.962477,119.586967 C106.713291,120.110369 105.601481,120.508529 104.627036,120.781448 C101.520993,121.651376 99.1640094,121.669367 97.5562476,120.835319 C95.9487982,120.001134 94.9078366,118.400825 94.4332349,116.034386 L94.0779267,114.155229 C91.9317385,117.880341 89.4536943,120.952136 86.6439558,123.370601 C83.8335284,125.789368 80.8446284,127.442332 77.6776829,128.329318 Z M84.5961849,113.715749 C85.6250611,113.421063 86.685262,112.92304 87.7767724,112.221685 C88.8682199,111.520358 89.8392162,110.729862 90.6897775,109.850178 C91.3583615,109.093298 91.9061403,108.318025 92.3331407,107.524332 C92.7600988,106.730659 92.9753576,105.979954 92.9789551,105.272181 L93,101.131732 C91.9740907,101.001391 90.8571828,100.967773 89.6492323,101.03088 C88.4413326,101.093965 87.3536595,101.263984 86.3861423,101.54096 C84.2696986,102.146845 82.5125748,103.250663 81.1145323,104.852532 C79.7162418,106.454512 79.0113855,108.17605 79.0001281,110.017113 C78.9906026,111.574935 79.5122727,112.697867 80.5652707,113.385891 C81.6184239,114.073845 82.9620874,114.183779 84.5961849,113.715749 Z M150.987443,69.1230519 C147.714192,70.0738877 144.738065,71.3622874 142.058717,72.9884048 C139.379032,74.6146757 137.382635,76.6076948 136.06943,78.967538 L136.009903,112.050833 L119,117 L119.170587,61.1929742 L134.68376,56.6898691 L134.663557,67.2940015 C136.335801,63.0637089 138.406974,59.5832873 140.87728,56.8525681 C143.346847,54.1221854 146.007707,52.3431174 148.860494,51.5150584 C149.989722,51.187285 150.702883,51.015601 151,51 L150.987443,69.1230519 Z M178.540673,99.8330769 C174.459035,100.987736 170.820478,101.285553 167.625429,100.726301 C164.4311,100.16673 161.754837,98.9331249 159.596648,97.0254096 C157.439294,95.1173241 155.799985,92.6883532 154.678466,89.7385141 C153.557512,86.788425 152.998171,83.5094275 153.000004,79.9016108 C153.001976,76.021506 153.549552,72.19153 154.642309,68.4117619 C155.734483,64.6322523 157.356512,61.1456662 159.508239,57.95199 C161.659108,54.7586939 164.310054,51.9518316 167.46124,49.531281 C170.611682,47.1110604 174.277542,45.3110217 178.459488,44.1308636 C182.582534,42.9673275 186.235895,42.7017115 189.420244,43.3337579 C192.605345,43.9654713 195.27697,45.2521717 197.435271,47.1938661 C199.594418,49.1351854 201.22504,51.6336944 202.326976,54.6895611 C203.429478,57.7451768 203.98722,61.1075875 203.999793,64.7770823 C204.003286,65.7963864 203.96256,66.8451748 203.877603,67.9234838 C203.792631,69.0017992 203.69248,69.9653585 203.577145,70.8141908 L170.890733,80.0520528 C171.070421,82.8592461 171.987915,84.6582807 173.643424,85.44913 C175.299254,86.2398373 177.102264,86.3594831 179.052267,85.8081776 C180.884089,85.2902846 182.611631,84.3256186 184.234767,82.91423 C185.857665,81.502947 186.93307,79.8723013 187.461086,78.0222113 L201.740786,78.6794529 C199.863262,83.4956964 196.962347,87.8192271 193.037655,91.650307 C189.111317,95.482116 184.278626,98.209861 178.540673,99.8330769 Z M187,63.9927765 C186.688093,61.6892646 185.825913,60.0249497 184.413587,58.9997219 C183.001586,57.9743665 181.192993,57.7377265 178.98751,58.2898907 C176.782026,58.8420549 174.975668,59.9837991 173.568135,61.7152532 C172.160277,63.4468352 171.30419,65.5417497 171,68 L187,63.9927765 Z M244,44.1151276 C240.719938,45.0684984 237.740504,46.3590175 235.061355,47.986839 C232.381867,49.6148145 230.390939,51.6087618 229.088475,53.968757 L229.254025,87.0376385 L212.208724,92 L212,36.2171892 L227.545457,31.7020786 L227.597392,42.3015925 C229.247612,38.0716427 231.303487,34.5908771 233.765219,31.8591267 C236.226212,29.1277137 238.885752,27.3470271 241.744476,26.5167604 C242.876054,26.1881132 243.590939,26.0158618 243.889156,26 L244,44.1151276 Z M250.39599,80 L250,26.715425 L268.527197,22 L269,75.2539043 L250.39599,80 Z M250.122771,22 L250,4.94829846 L268.853414,0 L269,17.0418866 L250.122771,22 Z M292.317962,14.9861379 L299.18318,26.1443655 L300.103593,28.0150537 L300.979612,25.6484717 L307.572125,10.7777538 L324.890088,6 L309.394505,36.8820859 L326,58.8974213 L308.610239,63.7062511 L301.174771,52.7103473 L300.343531,50.9164902 L299.554571,53.1581284 L292.391808,68.1911701 L275.002047,73 L291.051563,41.9485705 L275,19.7638917 L292.317962,14.9861379 Z" id="Mask" fill="#FFFFFF" fill-rule="nonzero"></path>
                </g>
            </g>
        </g>
    </g>
</svg>