<?xml version="1.0" encoding="UTF-8"?>
<svg width="269px" height="278px" viewBox="0 0 269 278" version="1.1" xmlns="http://www.w3.org/2000/svg" xmlns:xlink="http://www.w3.org/1999/xlink">
    <!-- Generator: Sketch 54.1 (76490) - https://sketchapp.com -->
    <title>Group 2</title>
    <desc>Created with Sketch.</desc>
    <defs>
        <radialGradient cx="-33.9288359%" cy="16.5214656%" fx="-33.9288359%" fy="16.5214656%" r="53.5607728%" gradientTransform="translate(-0.339288,0.165215),scale(1.000000,0.964169),rotate(42.894902),scale(1.000000,1.149832),translate(0.339288,-0.165215)" id="radialGradient-1">
            <stop stop-color="#00ECFF" offset="0%"></stop>
            <stop stop-color="#5200FF" offset="100%"></stop>
        </radialGradient>
        <radialGradient cx="104.674107%" cy="50%" fx="104.674107%" fy="50%" r="158.608478%" gradientTransform="translate(1.046741,0.500000),scale(1.000000,0.943365),rotate(-170.421666),scale(1.000000,1.149832),translate(-1.046741,-0.500000)" id="radialGradient-2">
            <stop stop-color="#00ECFF" offset="0%"></stop>
            <stop stop-color="#5200FF" offset="100%"></stop>
        </radialGradient>
        <polygon id="path-3" points="0 48.9600376 211 0 211 223.667355 0 187.521013"></polygon>
        <polygon id="path-5" points="2.27373675e-13 0 264 0 247 213.900085 158.221176 198.120808 158.221176 326.349851 0.383327454 326.349851"></polygon>
    </defs>
    <g id="Splash-screens" stroke="none" stroke-width="1" fill="none" fill-rule="evenodd">
        <g id="iPhone-8-Copy" transform="translate(-49.000000, -229.000000)">
            <g id="Group-2" transform="translate(-1.000000, 229.000000)">
                <g id="Group-3-Copy-3" transform="translate(120.000000, 118.000000)">
                    <g id="Group" transform="translate(0.000000, 0.902564)"></g>
                </g>
                <polygon id="Rectangle" fill="url(#radialGradient-1)" points="103.346915 52.9074272 309 9.9475983e-14 319 10 319 217.136285 309 223.667355 103.346915 182"></polygon>
                <g id="Group-3" transform="translate(98.000000, 0.000000)">
                    <mask id="mask-4" fill="white">
                        <use xlink:href="#path-3"></use>
                    </mask>
                    <use id="Rectangle" fill="url(#radialGradient-2)" xlink:href="#path-3"></use>
                </g>
                <g id="humaaan-3-copy-2">
                    <mask id="mask-6" fill="white">
                        <use xlink:href="#path-5"></use>
                    </mask>
                    <g id="Mask"></g>
                    <g id="Bottom/Standing/Sprint" mask="url(#mask-6)">
                        <g transform="translate(33.801765, 116.884156)">
                            <path d="M139.804357,-6.82445878 C127.014227,3.62060815 132.377587,95.8098697 131.526255,96.9657592 C131.147886,97.4794878 110.81512,101.761972 70.5279598,109.81321 L72.3056693,116.955491 C119.469231,114.850343 144.416689,112.047456 147.148044,108.546829 C151.058561,103.534933 155.778294,75.4160445 161.307243,24.1901632 L139.804357,-6.82445878 Z" id="Leg" fill="#B28B67" transform="translate(115.917601, 55.065516) rotate(-55.000000) translate(-115.917601, -55.065516) "></path>
                            <path d="M77.3825908,102.330267 L80.5082652,113.83479 C115.695123,118.070656 138.851738,113.174034 146.971337,105.424983 C152.384404,100.25895 157.117062,72.2166166 161.169311,21.2979837 L138.168114,-11.5511307 C107.712379,11.4445642 126.329779,87.3373196 125.557386,89.0676128 C124.784994,90.797906 106.24651,92.0729689 77.3825908,102.330267 Z" id="Pant" fill="#2F3676" transform="translate(119.275951, 51.923363) rotate(-55.000000) translate(-119.275951, -51.923363) "></path>
                            <g id="Accessories/Shoe/Flat-Sneaker" fill="none" transform="translate(151.141178, 125.322142) rotate(20.000000) translate(-151.141178, -125.322142) translate(130.504930, 111.938681)">
                                <path d="M1.49056779,18.151801 C0.945463801,19.750547 0.672911808,20.9789854 0.672911808,21.8371162 C0.672911808,23.0636463 0.875064074,24.8534587 1.27936861,27.2065534 C2.68705876,27.2065534 15.3382072,27.2065534 39.232814,27.2065534 C40.2190896,23.9108245 39.6497541,22.1315665 37.5248078,21.8687794 C35.3998614,21.6059924 33.6346324,21.3687167 32.2291207,21.1569524 L14.980356,13.3844958 C14.4349252,13.1387195 13.7935252,13.3816375 13.5477489,13.9270682 C13.5423926,13.9389549 13.5372514,13.9509374 13.5323277,13.9630097 L12.5586965,16.350251 C10.5915519,17.2779653 8.99304277,17.7418225 7.76316897,17.7418225 C6.91237115,17.7418225 5.78556884,17.4461056 4.38276205,16.8546717 L4.38276762,16.8546585 C3.28024613,16.3898272 2.00965565,16.9067773 1.54482435,18.0092987 C1.52507229,18.0561481 1.50697557,18.1036783 1.49056779,18.151801 Z" id="shoe" fill="#E4E4E4"></path>
                            </g>
                            <polygon id="Leg" fill="#997659" points="87.9577796 0 52.9465492 83.1293006 18.535959 153.408117 26.654531 153.408117 115.477528 0"></polygon>
                            <g id="Accessories/Shoe/Flat-Sneaker" fill="none" transform="translate(16.238359, 133.165438)">
                                <path d="M1.49056779,18.151801 C0.945463801,19.750547 0.672911808,20.9789854 0.672911808,21.8371162 C0.672911808,23.0636463 0.875064074,24.8534587 1.27936861,27.2065534 C2.68705876,27.2065534 15.3382072,27.2065534 39.232814,27.2065534 C40.2190896,23.9108245 39.6497541,22.1315665 37.5248078,21.8687794 C35.3998614,21.6059924 33.6346324,21.3687167 32.2291207,21.1569524 L14.980356,13.3844958 C14.4349252,13.1387195 13.7935252,13.3816375 13.5477489,13.9270682 C13.5423926,13.9389549 13.5372514,13.9509374 13.5323277,13.9630097 L12.5586965,16.350251 C10.5915519,17.2779653 8.99304277,17.7418225 7.76316897,17.7418225 C6.91237115,17.7418225 5.78556884,17.4461056 4.38276205,16.8546717 L4.38276762,16.8546585 C3.28024613,16.3898272 2.00965565,16.9067773 1.54482435,18.0092987 C1.52507229,18.0561481 1.50697557,18.1036783 1.49056779,18.151801 Z" id="shoe" fill="#E4E4E4"></path>
                            </g>
                            <path d="M21.6433979,138.808501 L39.6829547,142.154366 C53.6310893,121.873059 112.004602,38.712892 118.404703,2.84217094e-14 L78.2445838,2.84217094e-14 C56.8713897,27.9855012 34.9388509,118.191702 21.6433979,138.808501 Z" id="Pant" fill="#5C63AB"></path>
                        </g>
                    </g>
                    <g id="Head/Front/Wavy" mask="url(#mask-6)">
                        <g transform="translate(139.870379, 29.078203) rotate(14.000000) translate(-139.870379, -29.078203) translate(94.160559, -5.723799)">
                            <g id="Head" stroke-width="1" fill="none" transform="translate(36.210627, 20.801733)">
                                <path d="M5.5404096,23.1436906 C2.45049675,19.5142909 0.359179107,15.0664115 0.708639513,10.0824349 C1.71553225,-4.27778955 21.6918626,-1.11872315 25.5776724,6.12908498 C29.4634822,13.3768931 29.001747,31.7615595 23.979684,33.0569449 C21.9768922,33.5735429 17.7103503,32.3080848 13.3680059,29.6889756 L16.093612,48.9847262 L0,48.9847262 L5.5404096,23.1436906 Z" fill="#B28B67"></path>
                            </g>
                            <path d="M63.3076402,30.1850813 C63.1482252,29.2456148 62.7586248,28.2023475 62.4442634,27.3135239 C62.0389709,26.1677132 61.4256283,25.1346201 60.7506605,24.1609725 C59.4799128,22.3278811 57.9554935,20.6725545 56.2723867,19.298679 C53.1979836,16.7891672 49.2844173,15.3416709 45.4359056,15.8117471 C43.4927881,16.0490715 41.6065155,16.7907676 40.0010377,18.0252893 C38.5505064,19.1406914 37.1552612,20.7826428 35.2769904,20.9006191 C33.2332772,21.0288841 31.3598908,19.2238006 29.7208465,18.1089701 C27.8728169,16.8521565 25.9068367,15.9363539 23.7469397,15.5803672 C20.1286133,14.9841981 16.7294567,16.2075165 14.2357649,19.1781877 C11.5821385,22.3394273 9.6531543,26.9753709 11.3958079,31.1639875 C11.7197301,31.9426084 12.1364539,32.5990232 12.7345201,33.1430632 C13.2830159,33.6419476 14.1207242,34.1727267 14.3431155,34.9698671 C14.5793282,35.8171932 13.8737037,36.9103032 13.6000793,37.674863 C13.2080887,38.7702594 12.886245,39.9200713 13.0006621,41.1106947 C13.1886555,43.0659922 14.4165877,44.9325788 15.7132118,46.2177433 C17.0326986,47.5255429 18.6566743,48.2754699 20.391222,48.6211679 C21.5494232,48.8519763 22.733085,48.9793267 23.9101998,48.8926735 C24.4945484,48.8496899 25.0102051,48.6872438 25.5763674,48.5580643 C26.1269417,48.4324287 26.4346522,48.5787559 26.9017777,48.8808988 C29.0717551,50.2847255 31.4049926,50.827851 33.9106352,50.6191061 C36.0253266,50.4428275 38.462693,49.9299963 40.187784,48.4800994 C42.1035703,46.869814 42.0654312,44.6492984 41.6146213,42.2768541 C42.0922429,42.5137213 43.4136002,42.6603914 42.6240074,41.7162379 C42.3112047,41.3423033 41.7202052,41.1901458 41.3188617,40.9701977 C40.8515284,40.7141251 40.3770244,40.3831741 40.0141318,39.9654556 C38.5488437,38.2788057 40.0287847,34.8462892 41.8704752,34.280643 C44.6067188,33.4402904 45.219334,37.3125888 47.1726358,38.3142443 C48.2957116,38.8901791 49.4705401,38.1029844 50.3119896,37.2992136 C51.4391183,36.222451 52.2073034,34.7959892 52.8705281,33.3443775 C53.4168415,32.1489527 53.9252238,30.9367231 54.4820333,29.7472428 C54.742044,29.191771 55.6422089,27.621497 55.1901519,26.9934331 C57.1500007,26.6023508 59.3328643,27.4173248 61.0207515,28.4860851 C61.7183742,28.9279247 62.2502426,29.4150343 62.6223842,30.195027 C62.7020917,30.3621601 62.87564,30.8589867 63.0935627,30.8793354 C63.4992708,30.917289 63.3476498,30.4211483 63.3076402,30.1850813" id="hair" fill="#191847"></path>
                        </g>
                    </g>
                    <g id="Body/Hoodie" mask="url(#mask-6)">
                        <g transform="translate(134.181590, 112.082497) rotate(1.000000) translate(-134.181590, -112.082497) translate(47.735665, 49.943464)">
                            <path d="M129.068466,61.0139151 L150.648479,76.5126944 C156.501423,78.0573573 161.391369,79.9791787 165.318316,82.2781588 C166.245929,83.1048573 167.367036,84.779059 163.520001,84.489715 C159.672965,84.200371 155.613156,84.0652417 155.082339,85.3485989 C154.551523,86.6319561 156.879541,88.1667107 155.80653,89.8982956 C155.09119,91.0526856 151.711634,88.1580956 145.667863,81.2145255 L124.297989,72.5475241 L129.068466,61.0139151 Z M46.2120968,61.5488161 L60.349728,61.6031923 C51.6203931,89.164329 46.9078494,103.788095 46.2120968,105.474492 C44.6466536,109.268883 47.9593419,115.047676 49.375979,118.153156 C44.7620394,120.172431 45.2536596,112.694233 39.433299,115.342624 C34.1207438,117.759953 30.0794963,122.13999 23.9416063,118.435869 C23.1869888,117.980469 22.360051,116.265806 24.3580373,114.925888 C29.33575,111.587662 36.5089355,105.745166 37.4781458,103.822064 C38.7998373,101.199569 41.7111543,87.1084869 46.2120968,61.5488161 Z" id="Skin" fill="#B28B67"></path>
                            <path d="M83.1075273,6.39938245 L88.8497385,4.91188202 C112.070674,21.2889213 124.022408,55.6084303 152.153002,71.8816882 L146.450332,80.1735829 C99.9835904,78.6282918 84.8418154,36.8160337 83.1075273,6.39938245 Z" id="Coat-Back" fill="#E87613" transform="translate(117.630265, 42.542732) rotate(5.000000) translate(-117.630265, -42.542732) "></path>
                            <path d="M60.8873499,75.4308023 C84.343698,75.4308023 101.597696,75.4308023 112.649344,75.4308023 C115.014603,75.4308023 114.568915,72.0904333 114.227003,70.4048648 C110.280919,50.9513673 94.876904,29.9814383 94.876904,2.28987423 L79.9463082,0 C67.5967874,19.4256858 63.326109,43.3426382 60.8873499,75.4308023 Z" id="Shirt" fill="#DDE3E9"></path>
                            <path d="M61.3033061,19.0945523 C59.1348244,18.4849059 57.4176114,17.0630202 56.1516671,14.8288952 C50.6945078,5.19815876 52.6653434,-0.104275002 58.497316,-1.84721492 C64.3292886,-3.59015484 69.5301869,-1.33226763e-14 78.8220782,-3.99680289e-15 C79.3274797,-3.10862447e-15 79.7903706,0.0309878564 80.2107508,0.0929635693 L84.8848048,0.353823359 C98.2951751,44.8053635 101.993675,74.4627391 95.9803051,89.3259501 L55.2395841,89.3259501 C52.8257397,94.83099 50.5158943,99.4627059 48.310048,103.221098 L37.208936,103.221098 C36.1641654,70.1818049 44.1956221,42.139623 61.3033061,19.0945523 Z" id="Coat-Front" fill="#FF9B21"></path>
                            <path d="M64.1111514,66.4966409 C65.3924391,76.9817807 67.4749605,84.5915504 70.3587154,89.3259501 L55.2395841,89.3259501 C58.0552662,82.9044748 61.0124553,75.2947051 64.1111514,66.4966409 Z" id="Shade" fill-opacity="0.1" fill="#000000"></path>
                        </g>
                    </g>
                </g>
            </g>
        </g>
    </g>
</svg>