<?xml version="1.0" encoding="UTF-8"?>
<svg width="292px" height="264px" viewBox="0 0 292 264" version="1.1" xmlns="http://www.w3.org/2000/svg" xmlns:xlink="http://www.w3.org/1999/xlink">
    <!-- Generator: Sketch 54.1 (76490) - https://sketchapp.com -->
    <title>human2</title>
    <desc>Created with Sketch.</desc>
    <defs>
        <radialGradient cx="-33.9288359%" cy="16.5214656%" fx="-33.9288359%" fy="16.5214656%" r="53.5607728%" gradientTransform="translate(-0.339288,0.165215),scale(1.000000,0.964169),rotate(42.894902),scale(1.000000,1.149832),translate(0.339288,-0.165215)" id="radialGradient-1">
            <stop stop-color="#00ECFF" offset="0%"></stop>
            <stop stop-color="#5200FF" offset="100%"></stop>
        </radialGradient>
        <radialGradient cx="104.674107%" cy="50%" fx="104.674107%" fy="50%" r="158.608478%" gradientTransform="translate(1.046741,0.500000),scale(1.000000,0.943365),rotate(-170.421666),scale(1.000000,1.149832),translate(-1.046741,-0.500000)" id="radialGradient-2">
            <stop stop-color="#00ECFF" offset="0%"></stop>
            <stop stop-color="#5200FF" offset="100%"></stop>
        </radialGradient>
        <polygon id="path-3" points="0 48.9600376 211 0 211 223.667355 0 187.521013"></polygon>
    </defs>
    <g id="Splash-screens" stroke="none" stroke-width="1" fill="none" fill-rule="evenodd">
        <g id="iPhone-8-Copy-2" transform="translate(-26.000000, -229.000000)">
            <g id="human2" transform="translate(-22.000000, 229.000000)">
                <g id="Group-3-Copy-3" transform="translate(141.000000, 118.000000)">
                    <g id="Group" transform="translate(0.000000, 0.902564)"></g>
                </g>
                <polygon id="Rectangle" fill="url(#radialGradient-1)" points="124.346915 52.9074272 330 9.9475983e-14 340 10 340 217.136285 330 223.667355 124.346915 182"></polygon>
                <g id="Group-3" transform="translate(119.000000, 0.000000)">
                    <mask id="mask-4" fill="white">
                        <use xlink:href="#path-3"></use>
                    </mask>
                    <use id="Rectangle" fill="url(#radialGradient-2)" xlink:href="#path-3"></use>
                </g>
                <g id="A-Human/Sitting">
                    <g id="Head/Front/Short-2" transform="translate(61.226663, 0.000000)">
                        <g id="Head" stroke-width="1" transform="translate(40.799998, 23.028570)" fill="#B28B67">
                            <path d="M6.24260656,25.6212355 C2.76107512,21.6033065 0.40470182,16.6792791 0.798453183,11.1617651 C1.9329605,-4.73572929 24.4411106,-1.23848308 28.8194118,6.78520691 C33.1977129,14.8088969 32.677457,35.1616519 27.0188928,36.5957092 C24.7622652,37.1676092 19.9549775,35.7666831 15.0622802,32.8671968 L18.1333323,54.2285682 L0,54.2285682 L6.24260656,25.6212355 Z"></path>
                        </g>
                        <path d="M45.6492574,52.2284404 C43.3733457,42.2733668 36.8896447,35.4873268 37.8798614,31.0378347 C38.5400058,28.0715066 40.2994887,26.2268513 43.1583099,25.5038688 C44.6368652,19.6229423 49.4055093,17.1215551 57.4642422,17.9997071 C69.5523417,19.316935 76.9302447,24.2526193 73.744093,35.1132786 C70.8152704,35.1132786 67.2795555,34.0718738 62.3903967,35.8561357 C60.8390863,36.4222748 59.7295437,38.1779219 59.0617688,41.123077 L56.8523772,41.123077 C54.7080696,37.6279831 52.5937686,36.3436315 50.5094742,37.2700221 C48.4251798,38.1964127 47.9513858,40.4466193 49.0880922,44.0206417 L47.9997435,52.2284404 L45.6492574,52.2284404 Z" id="Hair" fill="#191847"></path>
                    </g>
                    <g id="Bottom/Sitting/Skinny-Jeans-1" transform="translate(0.000000, 140.051055)">
                        <g id="Objects/Seat/Cube" transform="translate(7.466666, 31.324998)" stroke-width="1">
                            <g id="Seat" transform="translate(40.924729, 0.000000)">
                                <polygon id="Seat-Stuff" fill="#C5CFD6" points="20.5536202 0 78.0376486 0 85.5698874 91.2639946 0 91.2639946"></polygon>
                                <polygon id="Seat-Stuff" fill-opacity="0.1" fill="#000000" points="20.5536202 0 38.2332218 0 48.814848 91.2639946 0 91.2639946"></polygon>
                            </g>
                        </g>
                        <path d="M192.605115,15.4806098 C198.755257,11.7917339 209.073739,16.5311823 209.066654,21.8069835 C209.045457,37.5921685 194.623644,111.987689 193.870662,116.690623 C193.11768,121.393557 185.051355,122.635779 184.581626,116.706035 C183.834209,107.270812 182.4456,74.6080319 183.83496,59.4896412 C184.408458,53.2490871 185.026085,47.3057918 185.634126,42.0035368 C178.066476,55.6545298 166.362721,75.1993854 150.52286,100.638103 L141.923833,96.7138246 C148.676381,74.4909192 154.21337,58.8021392 158.534798,49.6474849 C165.934133,33.9724941 172.872219,20.5489542 175.792235,15.8206211 C180.385423,8.38295014 188.3806,10.9780638 192.605115,15.4806098 Z" id="Skin" fill="#B28B67"></path>
                        <path d="M155.904611,92.0013585 L159.752403,16.2804234 C162.510779,3.1864593 185.815209,9.2545512 185.803105,16.2710778 C185.775626,32.2007653 176.178772,87.2325486 176.170585,91.9785347 L155.904611,92.0013585 Z" id="LegLower" fill="#1F28CF" transform="translate(170.853860, 50.285815) rotate(20.000000) translate(-170.853860, -50.285815) "></path>
                        <g id="Accessories/Shoe/Flat-Sneaker" transform="translate(160.906657, 99.195827) rotate(30.000000) translate(-160.906657, -99.195827) translate(138.133325, 84.279162)" fill="#E4E4E4">
                            <path d="M2.34273614,18.3144523 C1.29202313,20.9268749 0.766666621,22.8484747 0.766666621,24.0792517 C0.766666621,25.4317163 0.996984164,27.4052984 1.45761925,29.9999982 C3.06143871,29.9999982 17.4752343,29.9999982 44.699006,29.9999982 C45.8226964,26.3658789 45.1740371,24.4039348 42.7530283,24.1141659 C40.3320195,23.8243971 38.3208463,23.562759 36.7195088,23.3292517 L16.2721915,14.4118991 C16.0696967,14.3235884 15.8339522,14.4161529 15.7456414,14.6186477 C15.7449792,14.6201663 15.7443263,14.6216889 15.743683,14.6232156 L14.3084625,18.0290202 C12.0672415,19.051988 10.2460168,19.5634719 8.84478835,19.5634719 C7.57718669,19.5634719 5.77183483,19.0058499 3.42873277,17.8906058 L3.4287156,17.8906419 C3.02979239,17.7007668 2.55247704,17.8702338 2.36260194,18.269157 C2.35551472,18.2840471 2.34888962,18.2991527 2.34273614,18.3144523 Z" id="shoe"></path>
                        </g>
                        <g id="Accessories/Shoe/Flat-Sneaker" transform="translate(180.693323, 93.974994)" fill="#E4E4E4">
                            <path d="M2.34273614,18.3144523 C1.29202313,20.9268749 0.766666621,22.8484747 0.766666621,24.0792517 C0.766666621,25.4317163 0.996984164,27.4052984 1.45761925,29.9999982 C3.06143871,29.9999982 17.4752343,29.9999982 44.699006,29.9999982 C45.8226964,26.3658789 45.1740371,24.4039348 42.7530283,24.1141659 C40.3320195,23.8243971 38.3208463,23.562759 36.7195088,23.3292517 L16.2721915,14.4118991 C16.0696967,14.3235884 15.8339522,14.4161529 15.7456414,14.6186477 C15.7449792,14.6201663 15.7443263,14.6216889 15.743683,14.6232156 L14.3084625,18.0290202 C12.0672415,19.051988 10.2460168,19.5634719 8.84478835,19.5634719 C7.57718669,19.5634719 5.77183483,19.0058499 3.42873277,17.8906058 L3.4287156,17.8906419 C3.02979239,17.7007668 2.55247704,17.8702338 2.36260194,18.269157 C2.35551472,18.2840471 2.34888962,18.2991527 2.34273614,18.3144523 Z" id="shoe"></path>
                        </g>
                        <path d="M211.135199,27.1729649 C211.135199,46.9874972 201.714676,93.2070049 201.708714,97.5699941 L181.439989,97.5855455 C184.406703,56.3443346 185.458677,35.5015846 184.595912,35.0572955 C183.301765,34.3908619 131.544618,40.2190829 116.021807,40.2190829 C93.6378372,40.2190829 84.3780372,26.119378 83.6266617,-4.40536496e-13 L127.968473,-4.40536496e-13 C136.996864,0.965009031 184.089779,10.453045 201.579153,13.7146904 C209.066654,15.1110567 211.135199,21.7145714 211.135199,27.1729649 Z" id="Leg-and-Butt" fill="#2B44FF"></path>
                    </g>
                    <g id="Body/Pointing-Up" transform="translate(16.426666, 61.412762)">
                        <path d="M143.404471,1.74781417 L171.795141,-6.74807103 C177.091444,-10.8580567 182.087073,-13.8630853 186.782028,-15.7631567 C188.147485,-16.0193616 190.408063,-15.870564 187.583188,-12.6761471 C184.758312,-9.48173015 181.931085,-5.99503692 182.737634,-4.65560414 C183.544184,-3.31617136 186.48286,-4.32588897 187.333369,-2.20414646 C187.900376,-0.789651453 183.031681,0.223439486 172.727287,0.835126357 L150.652979,13.7853777 L143.404471,1.74781417 Z M140.895714,51.6455304 L164.788143,69.1351497 C171.268262,70.8782266 176.682192,73.0469088 181.029933,75.6411961 C182.056944,76.5740851 183.298185,78.4633404 179.038918,78.1368298 C174.779652,77.8103192 170.284812,77.6578323 169.697116,79.1060386 C169.10942,80.5542448 171.686897,82.2861407 170.498907,84.2401502 C169.706914,85.5428232 165.965221,82.276419 159.273827,74.4409376 L135.614055,64.6606477 L140.895714,51.6455304 Z" id="Skin" fill="#B28B67"></path>
                        <path d="M95.1440421,11.7051525 C113.971043,31.6977943 136.942594,44.7354805 168.277058,56.2912172 L161.30567,70.1770545 C128.968691,67.1616138 111.681393,64.7465902 98.1433895,44.7189339 C94.7456251,39.6923982 88.6767677,22.3926162 85.0399885,13.4091942 L95.1440421,11.7051525 Z" id="Coat-Back" fill="#2026A2" transform="translate(126.658523, 40.941104) rotate(15.000000) translate(-126.658523, -40.941104) "></path>
                        <path d="M67.4117607,85.1199949 L125.086267,85.1199949 C112.022026,45.4013485 105.348315,18.1409388 105.065136,3.33876571 C105.050699,2.58413662 103.652607,1.25437359 103.03406,1.42851789 C98.510696,2.70201643 93.6703393,2.2258438 88.5129901,0 C74.8401509,21.9209425 70.1118461,48.910061 67.4117607,85.1199949 Z" id="Shirt" fill="#F2F2F2"></path>
                        <path d="M93.4345744,0.0353885392 C109.966736,0.170337234 136.788949,3.17979652 167.722465,-6.7199996 L170.77646,8.49219815 C147.3972,23.4813426 123.723741,35.0926335 102.979891,33.443761 C111.987746,71.9615629 111.57244,103.492449 91.6855914,103.492449 C82.1886317,103.492449 71.937963,103.492449 60.9335855,103.492449 C56.0494571,70.7720096 68.8859023,25.4042978 80.7862204,2.52119025 C81.2406577,1.6473533 82.2082003,-2.7000624e-13 84.4871601,-2.7000624e-13 C86.4728547,-2.7000624e-13 89.4513966,-2.7000624e-13 93.4227858,-2.7000624e-13 C93.4267159,0.0117961899 93.4306454,0.0235923699 93.4345744,0.0353885392 Z" id="Coat-Front" fill="#1F28CF"></path>
                    </g>
                </g>
            </g>
        </g>
    </g>
</svg>