<?xml version="1.0" encoding="UTF-8"?>
<svg width="292px" height="295px" viewBox="0 0 292 295" version="1.1" xmlns="http://www.w3.org/2000/svg" xmlns:xlink="http://www.w3.org/1999/xlink">
    <!-- Generator: Sketch 54.1 (76490) - https://sketchapp.com -->
    <title>human4</title>
    <desc>Created with Sketch.</desc>
    <defs>
        <radialGradient cx="-33.9288359%" cy="16.5214656%" fx="-33.9288359%" fy="16.5214656%" r="53.5607728%" gradientTransform="translate(-0.339288,0.165215),scale(1.000000,0.964169),rotate(42.894902),scale(1.000000,1.149832),translate(0.339288,-0.165215)" id="radialGradient-1">
            <stop stop-color="#00ECFF" offset="0%"></stop>
            <stop stop-color="#5200FF" offset="100%"></stop>
        </radialGradient>
        <radialGradient cx="104.674107%" cy="50%" fx="104.674107%" fy="50%" r="158.608478%" gradientTransform="translate(1.046741,0.500000),scale(1.000000,0.943365),rotate(-170.421666),scale(1.000000,1.149832),translate(-1.046741,-0.500000)" id="radialGradient-2">
            <stop stop-color="#00ECFF" offset="0%"></stop>
            <stop stop-color="#5200FF" offset="100%"></stop>
        </radialGradient>
        <polygon id="path-3" points="0 48.9600376 211 0 211 223.667355 0 187.521013"></polygon>
    </defs>
    <g id="Splash-screens" stroke="none" stroke-width="1" fill="none" fill-rule="evenodd">
        <g id="iPhone-8-Copy-4" transform="translate(-26.000000, -229.000000)">
            <g id="human4" transform="translate(17.000000, 229.000000)">
                <g id="Group-3-Copy-3" transform="translate(102.000000, 118.000000)">
                    <g id="Group" transform="translate(0.000000, 0.902564)"></g>
                </g>
                <polygon id="Rectangle" fill="url(#radialGradient-1)" points="85.3469152 52.9074272 291 9.9475983e-14 301 10 301 217.136285 291 223.667355 85.3469152 182"></polygon>
                <g id="Group-3" transform="translate(80.000000, 0.000000)">
                    <mask id="mask-4" fill="white">
                        <use xlink:href="#path-3"></use>
                    </mask>
                    <use id="Rectangle" fill="url(#radialGradient-2)" xlink:href="#path-3"></use>
                </g>
                <g id="Humaaan" transform="translate(0.000000, 25.000000)">
                    <g id="Head/Front/Hijab-1" transform="translate(78.573237, 45.738746) rotate(-8.000000) translate(-78.573237, -45.738746) translate(27.854999, 7.100576)">
                        <g id="Head" transform="translate(40.102941, 22.951923)" fill="#B28B67">
                            <path d="M6.1359534,25.5359592 C2.71390294,21.5314033 0.397787604,16.6237648 0.784811836,11.1246149 C1.89993641,-4.71996716 24.0235411,-1.23436098 28.3270403,6.76262341 C32.6305394,14.7596078 32.1191719,35.0446219 26.5572827,36.4739061 C24.3392089,37.0439026 19.6140523,35.6476393 14.8049454,32.7578035 L17.8235294,54.0480769 L0,54.0480769 L6.1359534,25.5359592 Z"></path>
                        </g>
                        <g id="Hijab" transform="translate(26.735294, 20.730769)">
                            <path d="M37.6781986,3.71041664 C37.2699438,3.46749342 36.4158032,2.95509596 35.9830876,2.7693867 C35.8806881,2.72469917 35.1637151,2.21475269 35.1444342,2.22121474 C34.6015972,2.40379239 33.029695,3.07788176 32.8947772,3.66036064 C32.8738656,3.70450138 32.8533378,3.74590818 32.8333375,3.78209564 C32.6106007,4.18577468 32.4062334,4.59949474 32.2112668,5.01823532 C31.7834433,5.9374365 31.4141338,6.8981439 31.0614192,7.85129567 C30.3744076,9.70759293 29.7775651,11.6071362 29.2288287,13.511004 C28.6701641,15.4491207 28.1960091,17.4098546 27.6652106,19.3559743 C26.9014114,22.1563268 25.9238443,24.8879827 25.165321,27.6871919 C24.68095,29.4745441 24.4115459,31.2828731 24.5387418,33.1224684 C24.5399888,33.1445885 24.5407083,33.1664103 24.5427227,33.1888784 C24.5434901,33.1980744 24.5446412,33.2071709 24.5454565,33.2163669 C24.5670875,33.499156 24.5979273,33.782641 24.6390309,34.066971 C24.6750026,34.310093 24.7110703,34.5541098 24.749536,34.7980769 C25.442399,33.420667 25.9713749,31.9029312 26.5327254,30.4623921 C26.5876422,30.3213703 26.640017,30.1793047 26.6911927,30.0367918 C26.8722024,29.7446576 27.0567612,29.4546111 27.2433824,29.1656583 C28.4202807,27.3435602 29.6018313,25.5281726 30.7303836,23.6731181 C32.760243,20.3366643 34.7711573,16.9296749 37.1777123,13.8658698 C37.8883214,12.9611336 38.6154774,12.070266 39.3171655,11.1581234 C39.7164514,10.639072 40.1053775,10.1113217 40.4816895,9.57417654 C40.7507099,9.19008247 41.9202959,7.85129567 41.4967631,7.04692008 C41.2800657,6.63536745 38.7372536,4.34066495 37.6781986,3.71041664 Z" id="Front" fill="#2C2C2C"></path>
                            <path d="M36.1119686,2.83653636 C36.5089881,2.96954884 36.3158337,2.14590167 35.931288,1.85605857 C34.1497698,0.513277323 27.3388085,0.0260096827 21.4117646,1.25264472 C17.4412007,2.07437524 12.8233345,4.11962056 9.65192717,6.74894498 C6.79298867,9.11928712 4.82682301,12.9190697 3.81454904,16.5902979 C2.75169557,20.445159 2.59072084,24.4640012 3.1828674,28.4169744 C3.31295687,29.2852687 3.59248797,30.1127282 3.7482337,30.9626048 C3.92362481,31.9196789 4.01359277,32.8411522 4.3262571,33.7723034 C4.51772613,34.3423607 4.84309642,34.9012094 5.00646573,35.4745256 C5.19295011,36.1287212 5.07928064,36.7339349 4.94327801,37.3993392 C4.72165677,38.4838552 4.44686597,39.5661494 4.05635321,40.6019304 C3.46992433,42.1573054 2.75829289,43.6140252 2.31211826,45.22806 C1.71845676,47.3756626 -0.764862524,54.3643219 1.04994606,56.2692308 L35.5968494,56.2692308 C34.726931,53.9035301 32.1157043,51.1193268 31.5870875,48.58688 C31.2757427,47.0950532 31.1276205,43.8371104 31.0950248,43.7187044 C30.3165064,38.3684612 28.7963819,35.8134874 27.8443197,34.8862555 C26.8922575,33.9590236 25.624181,33.6738951 25.558843,32.8695934 C25.2887925,29.5430659 26.6156367,26.3557322 27.5885711,23.2511543 C28.7481365,19.5509912 29.5979208,15.7590363 30.7933561,12.071415 C31.3227059,10.4384687 34.0505418,2.14590167 36.1119686,2.83653636 Z" id="Turban" fill="#8991DC"></path>
                            <path d="M23.9994088,6.66346154 C22.6966626,10.7844061 22.4164707,12.9841512 22.6966626,18.6148303 L22.0575979,18.6148303 C20.8637584,13.3011617 21.9262851,8.29890236 23.1961785,6.66346154 L23.9994088,6.66346154 Z M6.52199357,17.2985744 C8.94968615,23.1713551 10.0565777,26.6393186 16.8359156,31.3916786 L16.3124244,31.7571144 C9.58246768,27.9545955 7.6226348,23.4188167 6.01135876,17.5432303 L6.52199357,17.2985744 Z M16.4967575,11.3221877 C17.5994092,19.6580022 17.921327,24.4194259 23.6655223,33.537674 L23.0543817,33.7239492 C17.1426151,25.7847417 16.2055095,19.3048604 15.9262079,11.3679686 L16.4967575,11.3221877 Z M10.1515794,36.0836198 L10.6744546,35.449936 C17.8093147,37.677925 17.0145605,42.2777142 26.0009703,46.9360267 L25.25,47.3896607 C17.381229,44.152144 15.5417966,37.2082751 10.1515794,36.0836198 Z" id="Shade" fill-opacity="0.2" fill="#000000"></path>
                        </g>
                    </g>
                    <g id="Bottom/Skinny-Jeans-1" transform="translate(9.000000, 144.000000)">
                        <path d="M164.313218,13.4771558 C169.674189,6.22483543 183.07474,11.0257797 183.066667,17.029577 C183.04547,32.7930575 168.623656,107.628187 167.870674,112.352907 C167.117692,117.077626 159.051366,118.623285 158.581637,112.719769 C157.83422,103.326278 156.445611,70.7626108 157.83497,55.6132064 C158.240795,51.1881435 158.668717,46.9108818 159.099703,42.9037828 C151.520145,56.4857021 139.994533,75.6826455 124.522869,100.494613 L115.923841,96.5759294 C122.67639,74.3847095 128.213379,58.7182987 132.534808,49.5766971 C139.934143,33.9240558 146.872229,20.5196553 149.792245,15.798064 C153.649376,9.56118399 159.905522,10.3891386 164.313218,13.4771558 Z" id="Skin" fill="#B28B67"></path>
                        <path d="M129.886958,91.883186 L133.76881,16.2558213 C136.532726,3.17707859 159.830489,9.22685108 159.815172,16.2345493 C159.780398,32.1441938 150.159924,87.1110892 150.149564,91.8511038 L129.886958,91.883186 Z" id="Leg-Back" fill="#1F28CF" transform="translate(144.851069, 50.216659) rotate(20.000000) translate(-144.851069, -50.216659) "></path>
                        <path d="M183.813333,22.4745864 C183.813333,42.2416569 175.126808,88.7065564 175.120839,93.0593202 L154.078192,92.3514644 C157.756475,51.953051 159.307642,31.6169736 158.731692,31.3432324 C157.435804,30.7273146 105.609058,38.498026 90.0653741,39.0847974 C67.6513043,39.9309247 58.3790526,26.2150187 57.6266667,0.186606918 L101.043576,0.186606918 C138.168888,4.60690137 162.569175,7.68128995 174.244437,9.40977267 C181.742007,10.5197622 183.813333,17.0292674 183.813333,22.4745864 Z" id="Leg-Front" fill="#2B44FF"></path>
                        <g id="Left-Shoe" transform="translate(133.821399, 102.671109) rotate(14.000000) translate(-133.821399, -102.671109) translate(111.321399, 94.671109)" fill="#E4E4E4">
                            <path d="M1.82897503,5.56772629 C1.11239058,7.55056082 0.754098361,9.0544031 0.754098361,10.0792531 C0.754098361,11.4317178 0.98064022,13.4053001 1.43372394,16 C3.01125137,16 17.1887561,16 43.9662381,16 C45.0715073,12.3658804 44.4334818,10.4039362 42.0521615,10.1141674 C39.6708412,9.82439851 37.692638,9.56276042 36.1175518,9.32925312 L16.5770385,0.665338663 C16.0721555,0.441482544 15.4813956,0.669299876 15.2575395,1.17418292 C15.2542433,1.18161729 15.2510378,1.1890916 15.2479239,1.19660418 L14.0738984,4.02902128 C11.8694186,5.05198912 10.0780499,5.56347304 8.69979233,5.56347304 C7.66613186,5.56347304 6.26893375,5.18021852 4.50819802,4.41370948 L4.50819034,4.41372712 C3.49543696,3.97284062 2.31702901,4.43643032 1.87614251,5.44918369 C1.85916336,5.48818623 1.84343286,5.52772054 1.82897503,5.56772629 Z" id="shoe"></path>
                        </g>
                        <g id="Right-Shoe" transform="translate(155.000000, 97.000000)" fill="#E4E4E4">
                            <path d="M1.82897503,5.56772629 C1.11239058,7.55056082 0.754098361,9.0544031 0.754098361,10.0792531 C0.754098361,11.4317178 0.98064022,13.4053001 1.43372394,16 C3.01125137,16 17.1887561,16 43.9662381,16 C45.0715073,12.3658804 44.4334818,10.4039362 42.0521615,10.1141674 C39.6708412,9.82439851 37.692638,9.56276042 36.1175518,9.32925312 L16.5770385,0.665338663 C16.0721555,0.441482544 15.4813956,0.669299876 15.2575395,1.17418292 C15.2542433,1.18161729 15.2510378,1.1890916 15.2479239,1.19660418 L14.0738984,4.02902128 C11.8694186,5.05198912 10.0780499,5.56347304 8.69979233,5.56347304 C7.66613186,5.56347304 6.26893375,5.18021852 4.50819802,4.41370948 L4.50819034,4.41372712 C3.49543696,3.97284062 2.31702901,4.43643032 1.87614251,5.44918369 C1.85916336,5.48818623 1.84343286,5.52772054 1.82897503,5.56772629 Z" id="shoe"></path>
                        </g>
                        <rect id="Base" fill="#2F3676" x="156.933333" y="112.460251" width="39.5733333" height="5.21338912" rx="2.60669456"></rect>
                        <path d="M57.92,4.46861925 L132.746667,4.46861925 C138.269514,4.46861925 142.746667,8.94577175 142.746667,14.4686192 L142.746667,48.4100418 L51.92,48.4100418 C49.710861,48.4100418 47.92,46.6191808 47.92,44.4100418 L47.92,14.4686192 C47.92,8.94577175 52.3971525,4.46861925 57.92,4.46861925 Z" id="Seat" fill="#2F3676"></path>
                        <path d="M135.28,4.46861925 L135.28,4.46861925 C139.881908,4.46861925 143.807112,7.80054158 144.554543,12.341346 L160.666667,110.225941 L152.688,110.225941" id="Wheel-Stuff" fill="#2F3676"></path>
                        <ellipse id="Front-Wheel" fill="#191847" cx="156.933333" cy="111.715481" rx="13.44" ry="13.4058577"></ellipse>
                        <g id="Wheel" transform="translate(0.880000, 10.426778)" fill="#191847">
                            <path d="M56.7466667,113.205021 C25.4063481,113.205021 0,87.8632138 0,56.6025105 C0,25.3418071 25.4063481,0 56.7466667,0 C88.0869853,0 113.493333,25.3418071 113.493333,56.6025105 C113.493333,87.8632138 88.0869853,113.205021 56.7466667,113.205021 Z M56.7466667,102.778243 C82.3137687,102.778243 103.04,82.1046632 103.04,56.6025105 C103.04,31.1003577 82.3137687,10.4267782 56.7466667,10.4267782 C31.1795646,10.4267782 10.4533333,31.1003577 10.4533333,56.6025105 C10.4533333,82.1046632 31.1795646,102.778243 56.7466667,102.778243 Z"></path>
                            <rect id="Wheel-Stuff" x="53.76" y="7.44769874" width="5.97333333" height="98.3096234"></rect>
                            <path d="M55.8213054,7.38636107 L57.7870419,7.38386107 C58.8916105,7.38245629 59.7881791,8.27674727 59.7895838,9.38131588 C59.789586,9.38301159 59.789586,9.38470731 59.7895838,9.38640303 L59.6694827,103.821205 C59.6680805,104.923788 58.7746104,105.817258 57.6720279,105.81866 L55.7062915,105.82116 C54.6017228,105.822565 53.7051543,104.928274 53.7037495,103.823705 C53.7037473,103.822009 53.7037473,103.820314 53.7037495,103.818618 L53.8238506,9.38381588 C53.8252529,8.28123341 54.7187229,7.38776333 55.8213054,7.38636107 Z" id="Wheel-Stuff" transform="translate(56.746667, 56.602510) rotate(45.000000) translate(-56.746667, -56.602510) "></path>
                            <path d="M55.7675872,7.32251046 L57.7257462,7.32251046 C58.8303157,7.32251046 59.7257462,8.21794096 59.7257462,9.32251046 L59.7257462,103.88251 C59.7257462,104.98708 58.8303157,105.88251 57.7257462,105.88251 L55.7675872,105.88251 C54.6630177,105.88251 53.7675872,104.98708 53.7675872,103.88251 L53.7675872,9.32251046 C53.7675872,8.21794096 54.6630177,7.32251046 55.7675872,7.32251046 Z" id="Wheel-Stuff" transform="translate(56.746667, 56.602510) rotate(90.000000) translate(-56.746667, -56.602510) "></path>
                            <path d="M55.7062915,7.38386107 L57.6720279,7.38636107 C58.7746104,7.38776333 59.6680805,8.28123341 59.6694827,9.38381588 L59.7895838,103.818618 C59.7909886,104.923186 58.8966976,105.819755 57.792129,105.82116 C57.7904333,105.821162 57.7887376,105.821162 57.7870419,105.82116 L55.8213054,105.81866 C54.7187229,105.817258 53.8252529,104.923788 53.8238506,103.821205 L53.7037495,9.38640303 C53.7023447,8.28183442 54.5966357,7.38526585 55.7012043,7.38386107 C55.7029,7.38385891 55.7045957,7.38385891 55.7062915,7.38386107 Z" id="Wheel-Stuff" transform="translate(56.746667, 56.602510) rotate(135.000000) translate(-56.746667, -56.602510) "></path>
                        </g>
                    </g>
                    <g id="Body/Long-Sleeve-1" transform="translate(97.658396, 133.614839) rotate(-8.000000) translate(-97.658396, -133.614839) translate(8.658396, 66.114839)">
                        <path d="M130.25,48.546523 L159.707927,44.5433043 C165.600707,41.2778164 171.02178,39.0671383 175.971144,37.9112698 C177.363946,37.8707555 179.579627,38.3751895 176.278876,41.1166436 C172.978126,43.8580977 169.629049,46.8907183 170.217143,48.3537845 C170.805237,49.8168506 173.874893,49.2724921 174.383414,51.5228122 C174.722427,53.0230256 169.740562,53.2667954 159.437818,52.2541214 L135.535234,61.6951872 L130.25,48.546523 Z M37.7118369,55.3396042 L54.0493441,55.4006897 C36.1348241,95.564856 26.7939154,116.594177 26.0266182,118.488652 C24.3001994,122.751222 27.9535337,129.243041 29.5158445,132.731697 C24.4274504,135.000123 24.9696242,126.599215 18.550752,129.574382 C12.6919031,132.289977 8.23509133,137.210453 1.46603799,133.049292 C0.633822655,132.537702 -0.278149764,130.611472 1.9252909,129.106226 C7.41486514,125.356107 15.3256742,118.792724 16.3945491,116.632336 C17.852151,113.686261 24.9579136,93.2553502 37.7118369,55.3396042 Z" id="Skin" fill="#997659"></path>
                        <path d="M79.1357302,7.19975035 L91.9527821,6.93063208 C97.5659746,34.9435613 116.223736,51.3154994 153.968148,41.9181186 L162.24003,77.9012476 C126.870489,85.636901 94.2495439,74.1131815 84.4400557,36.0434886 C81.9006891,26.1884478 79.6759083,15.8957989 79.1357302,7.19975035 Z" id="Clothes-Back" fill="#A8C9EE" transform="translate(120.687880, 43.553147) rotate(5.000000) translate(-120.687880, -43.553147) "></path>
                        <path d="M76.1513515,0.0118481174 L95.5324705,4.43408259 C95.5324705,37.6447862 106.151191,58.8337636 111.597656,83.2513369 L59.2544451,83.2513369 C58.5170995,91.6886358 58.0643021,100.36065 57.8283513,109.26738 L18.6355954,109.26738 C27.5168937,62.1887214 46.2623096,25.7662615 74.8718431,0 L76.141158,0 L76.1513515,0.0118481174 Z" id="Clothes" fill="#FFFFFF"></path>
                        <path d="M67.512807,35.8718484 C66.163877,56.5667032 66.9572213,72.359866 69.89284,83.2513369 L59.2544451,83.2513369 C60.7151245,66.5370716 63.2924706,50.7439115 67.5128048,35.8718563 Z" id="Shade" fill-opacity="0.1" fill="#000000"></path>
                    </g>
                </g>
            </g>
        </g>
    </g>
</svg>