<?xml version="1.0" encoding="UTF-8"?>
<svg width="287px" height="300px" viewBox="0 0 287 300" version="1.1" xmlns="http://www.w3.org/2000/svg" xmlns:xlink="http://www.w3.org/1999/xlink">
    <!-- Generator: Sketch 54.1 (76490) - https://sketchapp.com -->
    <title>human3</title>
    <desc>Created with Sketch.</desc>
    <defs>
        <radialGradient cx="-33.9288359%" cy="16.5214656%" fx="-33.9288359%" fy="16.5214656%" r="53.5607728%" gradientTransform="translate(-0.339288,0.165215),scale(1.000000,0.964169),rotate(42.894902),scale(1.000000,1.149832),translate(0.339288,-0.165215)" id="radialGradient-1">
            <stop stop-color="#00ECFF" offset="0%"></stop>
            <stop stop-color="#5200FF" offset="100%"></stop>
        </radialGradient>
        <radialGradient cx="104.674107%" cy="50%" fx="104.674107%" fy="50%" r="158.608478%" gradientTransform="translate(1.046741,0.500000),scale(1.000000,0.943365),rotate(-170.421666),scale(1.000000,1.149832),translate(-1.046741,-0.500000)" id="radialGradient-2">
            <stop stop-color="#00ECFF" offset="0%"></stop>
            <stop stop-color="#5200FF" offset="100%"></stop>
        </radialGradient>
        <polygon id="path-3" points="0 48.9600376 211 0 211 223.667355 0 187.521013"></polygon>
    </defs>
    <g id="Splash-screens" stroke="none" stroke-width="1" fill="none" fill-rule="evenodd">
        <g id="iPhone-8-Copy-3" transform="translate(-31.000000, -229.000000)">
            <g id="human3" transform="translate(15.000000, 229.000000)">
                <g id="Group-3-Copy-3" transform="translate(104.000000, 118.000000)">
                    <g id="Group" transform="translate(0.000000, 0.902564)"></g>
                </g>
                <polygon id="Rectangle" fill="url(#radialGradient-1)" points="87.3469152 52.9074272 293 9.9475983e-14 303 10 303 217.136285 293 223.667355 87.3469152 182"></polygon>
                <g id="Group-3" transform="translate(82.000000, 0.000000)">
                    <mask id="mask-4" fill="white">
                        <use xlink:href="#path-3"></use>
                    </mask>
                    <use id="Rectangle" fill="url(#radialGradient-2)" xlink:href="#path-3"></use>
                </g>
                <g id="Group-4" transform="translate(110.000000, 151.500000) scale(-1, 1) translate(-110.000000, -151.500000) translate(0.000000, 3.000000)">
                    <g id="Head" transform="translate(99.500000, 30.000000) scale(-1, 1) translate(-99.500000, -30.000000) translate(81.000000, 0.000000)">
                        <g transform="translate(3.705882, 5.653846)" fill="#FDD7B4">
                            <path d="M6.07520138,25.2043234 C2.68703261,21.2517747 0.393849113,16.4078717 0.777041422,10.9801394 C1.88112516,-4.65866888 23.7856843,-1.21833032 28.0465745,6.67479713 C32.3074648,14.5679246 31.8011603,34.589497 26.2943393,36.000219 C24.0982266,36.562813 19.4198538,35.184683 14.6583618,32.3323775 L17.6470588,53.3461538 L0,53.3461538 L6.07520138,25.2043234 Z"></path>
                        </g>
                        <path d="M8.42510173,34.3785724 C6.21022214,24.5854891 -0.0996082999,17.9098724 0.864054165,13.532783 C1.50649581,10.6147234 3.21879538,8.80008453 6.00095288,8.08886649 C7.4398584,2.30363524 12.0806239,-0.1570491 19.9232495,0.706813475 C31.6871878,2.00260734 38.8672409,6.85797752 35.7665308,17.5419108 C32.9162491,17.5419108 29.4753499,16.5174518 24.7173014,18.27268 C23.2075919,18.8296068 22.1278033,20.5566858 21.4779358,23.4539169 L19.3277925,23.4539169 C17.2409879,20.0156956 15.1833852,18.7522432 13.1549843,19.6635594 C11.1265835,20.5748757 10.665495,22.7884666 11.7717189,26.3043321 L10.7125559,34.3785724 L8.42510173,34.3785724 Z" id="Hair" fill="#F5A623"></path>
                    </g>
                    <g id="Bottom/Standing/Skinny-Jeans-Walk" transform="translate(110.000000, 209.000000) scale(-1, 1) translate(-110.000000, -209.000000) translate(0.000000, 121.000000)">
                        <polygon id="Leg" fill="#1F28CF" points="93.8666667 0 129.126536 93.6901088 153.841108 162.74477 167.933333 162.74477 133.960704 7.22731963e-14"></polygon>
                        <path d="M85.1521939,0 C84.7689177,32.1470177 85.0460107,75.4277592 84.1529852,77.4316407 C83.5576349,78.7675617 65.0399731,93.9886428 28.6,123.094884 L35.8636522,135.497908 C79.1262859,107.482093 101.86352,91.6078816 104.075354,87.8752739 C107.393105,82.2763622 124.061227,30.754444 132.733333,0 L85.1521939,0 Z" id="Leg" fill="#2B44FF"></path>
                        <g id="Accessories/Shoe/Flat-Pointy" transform="translate(41.433333, 139.179916) rotate(50.000000) translate(-41.433333, -139.179916) translate(19.066667, 124.451883)" fill="#191847">
                            <path d="M0,29 L0.737704918,13.775 L16.2295082,13.775 C23.5752811,18.85 33.165445,22.9583333 45,26.1 L45,29 L16.9672131,29 L7.37704918,27.55 L7.37704918,29 L0,29 Z" id="Shoe"></path>
                        </g>
                        <g id="Accessories/Shoe/Flat-Pointy" transform="translate(152.533333, 146.543933)" fill="#191847">
                            <path d="M0,29 L0.737704918,13.775 L16.2295082,13.775 C23.5752811,18.85 33.165445,22.9583333 45,26.1 L45,29 L16.9672131,29 L7.37704918,27.55 L7.37704918,29 L0,29 Z" id="Shoe"></path>
                        </g>
                    </g>
                    <g id="Body" transform="translate(103.148900, 106.828710) scale(-1, 1) rotate(8.000000) translate(-103.148900, -106.828710) translate(19.148900, 40.828710)">
                        <path d="M131.282033,71.7383199 L152.195993,91.9842993 C158.281185,94.5600538 163.267132,97.4042069 167.153836,100.516759 C168.027898,101.562993 168.979456,103.567632 164.86704,102.670585 C160.754624,101.773538 156.388325,101.013511 155.615404,102.340644 C154.842483,103.667777 157.119958,105.701417 155.691504,107.438292 C154.739201,108.59621 151.536533,104.913102 146.083498,96.3889687 L124.335745,83.6653459 L131.282033,71.7383199 Z M29.0128542,53.4150087 L45.179288,53.4752152 C32.866417,93.0614799 26.3303502,113.788221 25.5710875,115.655437 C23.8627464,119.856675 27.4778259,126.255087 29.0237774,129.693546 C23.9886649,131.929333 24.5251615,123.649301 18.1735026,126.58166 C12.3760029,129.258182 7.96585935,134.10786 1.26768615,130.006572 C0.444185115,129.502342 -0.458237856,127.603828 1.72213013,126.12024 C7.15422192,122.42408 14.9821953,115.955134 16.0398778,113.825831 C17.4822168,110.922145 21.8065423,90.7852044 29.0128542,53.4150087 Z" id="Skin" fill="#FDD7B4"></path>
                        <path d="M74.6661575,11.1405394 L80.9311698,9.5016721 C94.0242441,43.7679619 147.594688,63.219241 151.904014,76.0800442 C153.484357,80.7964407 150.203287,83.5375645 152.136581,84.8471066 L144.395553,91.5752465 C142.853919,90.0770013 140.126043,93.3030193 133.706279,91.775018 C127.286514,90.2470167 78.3067386,52.7525726 74.6661575,11.1405394 Z" id="Clothes-Back" fill="#DB2721" transform="translate(113.508007, 50.849421) rotate(5.000000) translate(-113.508007, -50.849421) "></path>
                        <path d="M89.0136477,12.5963176 C88.2776164,59.300434 115.484813,71.2139292 109.42458,89.9497306 C104.42014,105.421446 56.5193968,122.053476 48.2304687,106.887542 C44.8752165,100.748566 43.3529248,93.3239088 43.1802019,85.2517019 C41.0617255,91.4532795 39.386246,96.7920947 38.1537616,101.268153 C36.0275537,108.989979 27.7846996,110.217398 27.7846996,113.192122 L16.9248557,110.217398 C17.6614533,106.176111 12.5418605,104.208245 13.9145568,95.1796574 C20.0650425,54.726283 36.5902896,25.4029031 63.490298,7.20951781 L63.6937215,4.32273184 C63.8488905,2.12072645 65.7585535,0.460688627 67.9607238,0.613498622 L85.7568094,1.84838027 C87.960649,2.00130609 89.623243,3.91184192 89.4703172,6.11568148 C89.4702183,6.11710641 89.4701187,6.11853127 89.4700183,6.11995609 L89.0136477,12.5963176 Z" id="Clothes-Front" fill="#FF4133"></path>
                    </g>
                </g>
            </g>
        </g>
    </g>
</svg>