<?xml version="1.0" encoding="UTF-8"?>
<svg width="100px" height="17px" viewBox="0 0 100 17" version="1.1" xmlns="http://www.w3.org/2000/svg" xmlns:xlink="http://www.w3.org/1999/xlink">
    <!-- Generator: Sketch 54.1 (76490) - https://sketchapp.com -->
    <title>Seamless lettermark</title>
    <desc>Created with Sketch.</desc>
    <g id="Splash-screens" stroke="none" stroke-width="1" fill="none" fill-rule="evenodd">
        <g id="iPhone-8-Copy" transform="translate(-143.000000, -584.000000)" fill="#000000">
            <g id="Seamless-lettermark" transform="translate(133.000000, 576.000000)">
                <g id="Group-2-Copy-3" transform="translate(10.000000, 8.000000)">
                    <path d="M6.6875,16.8896484 C5.79882368,16.8896484 4.96997455,16.7802745 4.20092773,16.5615234 C3.43188092,16.3427723 2.78076438,16.0830093 2.24755859,15.7822266 L1.54003906,16.5 L0.668457031,16.5 L0.53515625,11.2397461 L1.41699219,11.2397461 C1.61523537,11.738772 1.86816252,12.265134 2.17578125,12.8188477 C2.48339998,13.3725614 2.83886517,13.8681619 3.2421875,14.3056641 C3.65918177,14.7636742 4.12572984,15.136229 4.6418457,15.4233398 C5.15796156,15.7104507 5.76122702,15.8540039 6.45166016,15.8540039 C7.3813523,15.8540039 8.09399166,15.6267113 8.58959961,15.1721191 C9.08520756,14.717527 9.33300781,14.145023 9.33300781,13.4545898 C9.33300781,12.8872042 9.12280484,12.4104023 8.70239258,12.0241699 C8.28198032,11.6379375 7.63086378,11.3046889 6.74902344,11.0244141 C6.17480182,10.8398428 5.64673093,10.6689461 5.16479492,10.5117188 C4.68285892,10.3544914 4.22998259,10.1938485 3.80615234,10.0297852 C2.82860839,9.64013477 2.1022973,9.08301144 1.62719727,8.35839844 C1.15209723,7.63378544 0.914550781,6.82373495 0.914550781,5.92822266 C0.914550781,5.36083701 1.03759643,4.81567644 1.28369141,4.29272461 C1.52978639,3.76977278 1.88866952,3.29980677 2.36035156,2.8828125 C2.81152569,2.49316211 3.38915664,2.1752942 4.09326172,1.92919922 C4.7973668,1.68310424 5.56298415,1.56005859 6.39013672,1.56005859 C7.19678138,1.56005859 7.95214492,1.67114147 8.65625,1.89331055 C9.36035508,2.11547963 9.91406048,2.33935434 10.3173828,2.56494141 L10.9428711,1.94970703 L11.8349609,1.94970703 L11.9169922,6.91259766 L11.0351563,6.91259766 C10.8300771,6.37939187 10.5891127,5.8342313 10.3122559,5.27709961 C10.035399,4.71996792 9.7431656,4.25683778 9.43554688,3.88769531 C9.10058426,3.49120896 8.71435766,3.17505001 8.27685547,2.93920898 C7.83935328,2.70336796 7.3266631,2.58544922 6.73876953,2.58544922 C6.00048459,2.58544922 5.39721914,2.79394323 4.92895508,3.2109375 C4.46069102,3.62793177 4.2265625,4.14403989 4.2265625,4.75927734 C4.2265625,5.34033494 4.42992961,5.81542784 4.83666992,6.18457031 C5.24341024,6.55371278 5.8774371,6.87841657 6.73876953,7.15869141 C7.24463144,7.3295907 7.76073956,7.50048743 8.28710938,7.67138672 C8.81347919,7.84228601 9.28173623,8.00634687 9.69189453,8.16357422 C10.6831104,8.54638863 11.436765,9.07445952 11.9528809,9.74780273 C12.4689967,10.4211459 12.7270508,11.2568309 12.7270508,12.2548828 C12.7270508,12.8837922 12.5800796,13.4921846 12.2861328,14.0800781 C11.992186,14.6679717 11.5957056,15.1567363 11.0966797,15.5463867 C10.549802,15.9770529 9.91748406,16.3085926 9.19970703,16.5410156 C8.48193,16.7734387 7.64453604,16.8896484 6.6875,16.8896484 Z M25.1240234,14.0493164 C24.8847644,14.4389668 24.595949,14.8063948 24.2575684,15.1516113 C23.9191878,15.4968279 23.5346701,15.7924792 23.1040039,16.0385742 C22.6459938,16.2983411 22.1828637,16.4948724 21.7145996,16.6281738 C21.2463355,16.7614753 20.7080109,16.828125 20.0996094,16.828125 C19.0878856,16.828125 18.2146033,16.6845717 17.4797363,16.3974609 C16.7448694,16.1103501 16.138186,15.7241235 15.659668,15.2387695 C15.18115,14.7534155 14.8239758,14.1809115 14.5881348,13.5212402 C14.3522937,12.861569 14.234375,12.1455117 14.234375,11.3730469 C14.234375,10.6757778 14.3625475,10.0075716 14.6188965,9.3684082 C14.8752454,8.72924485 15.2392555,8.16015875 15.7109375,7.66113281 C16.1757836,7.17577882 16.7619594,6.78271635 17.4694824,6.48193359 C18.1770055,6.18115084 18.9682573,6.03076172 19.8432617,6.03076172 C20.8002978,6.03076172 21.5864227,6.14697149 22.2016602,6.37939453 C22.8168976,6.61181757 23.3261699,6.93310342 23.7294922,7.34326172 C24.1191426,7.7329121 24.4028311,8.1926243 24.5805664,8.72241211 C24.7583017,9.25219991 24.847168,9.80761428 24.847168,10.3886719 L24.847168,11.0551758 L17.9155273,11.0551758 C17.9155273,12.45655 18.1855442,13.5229456 18.7255859,14.2543945 C19.2656277,14.9858435 20.1235293,15.3515625 21.2993164,15.3515625 C21.9418977,15.3515625 22.5195287,15.1755389 23.0322266,14.8234863 C23.5449244,14.4714338 23.9824201,14.0253933 24.3447266,13.4853516 L25.1240234,14.0493164 Z M21.2070312,10.152832 C21.2070312,9.74267373 21.1865236,9.32226778 21.1455078,8.89160156 C21.104492,8.46093535 21.0327154,8.10888809 20.9301758,7.83544922 C20.8139643,7.51415855 20.6550303,7.2714852 20.4533691,7.10742188 C20.251708,6.94335855 19.9970719,6.86132812 19.6894531,6.86132812 C19.1630833,6.86132812 18.7426774,7.12792702 18.4282227,7.66113281 C18.113768,8.1943386 17.9428712,9.03856844 17.9155273,10.1938477 L21.2070312,10.152832 Z M37.8286133,16.284668 C37.5278305,16.4145514 37.1723653,16.5341791 36.762207,16.6435547 C36.3520487,16.7529302 35.917971,16.8076172 35.4599609,16.8076172 C34.6191364,16.8076172 34.0004903,16.6828626 33.6040039,16.4333496 C33.2075175,16.1838366 32.9375007,15.8266625 32.7939453,15.3618164 L32.7324219,15.3618164 C32.4999988,15.5942394 32.2761241,15.7924796 32.060791,15.956543 C31.8454579,16.1206063 31.6147473,16.2607416 31.3686523,16.3769531 C31.0473617,16.5273445 30.7380386,16.6384274 30.4406738,16.7102051 C30.1433091,16.7819828 29.72803,16.8178711 29.1948242,16.8178711 C28.4018515,16.8178711 27.7251005,16.5837426 27.1645508,16.1154785 C26.6040011,15.6472145 26.3237305,15.0268593 26.3237305,14.2543945 C26.3237305,13.8100564 26.3852533,13.4323746 26.5083008,13.1213379 C26.6313483,12.8103012 26.8056629,12.5351574 27.03125,12.2958984 C27.2363292,12.0771473 27.4738756,11.8959968 27.7438965,11.7524414 C28.0139174,11.608886 28.3095687,11.4755866 28.6308594,11.3525391 C29.2460968,11.126952 29.9843707,10.8928235 30.8457031,10.6501465 C31.7070356,10.4074695 32.3359355,10.1904306 32.7324219,9.99902344 L32.7324219,9.01464844 C32.7324219,8.84374915 32.7187501,8.61816546 32.6914062,8.33789062 C32.6640624,8.05761579 32.6059575,7.8217783 32.5170898,7.63037109 C32.4213862,7.41162 32.2709971,7.22705153 32.065918,7.07666016 C31.8608388,6.92626878 31.590822,6.85107422 31.2558594,6.85107422 C30.9550766,6.85107422 30.7038584,6.8937984 30.5021973,6.97924805 C30.3005361,7.06469769 30.1381842,7.15185502 30.0151367,7.24072266 C30.0356446,7.37744209 30.0937495,7.5859361 30.1894531,7.86621094 C30.2851567,8.14648578 30.3330078,8.41650261 30.3330078,8.67626953 C30.3330078,8.79248105 30.3022464,8.93774327 30.2407227,9.11206055 C30.1791989,9.28637782 30.0903326,9.42480417 29.9741211,9.52734375 C29.8168937,9.66406318 29.6408701,9.77001916 29.4460449,9.84521484 C29.2512197,9.92041053 28.9521505,9.95800781 28.5488281,9.95800781 C27.9746065,9.95800781 27.5405288,9.81958146 27.246582,9.54272461 C26.9526352,9.26586776 26.8056641,8.90527566 26.8056641,8.4609375 C26.8056641,8.07812309 26.9577622,7.73462066 27.2619629,7.43041992 C27.5661636,7.12621918 27.9370095,6.87500099 28.3745117,6.67675781 C28.8051779,6.47167866 29.3007784,6.3127447 29.8613281,6.19995117 C30.4218778,6.08715764 30.9414039,6.03076172 31.4199219,6.03076172 C32.0830111,6.03076172 32.6914035,6.07006797 33.2451172,6.14868164 C33.7988309,6.22729531 34.2978493,6.38964721 34.7421875,6.63574219 C35.1660177,6.8750012 35.5026843,7.22192156 35.7521973,7.67651367 C36.0017102,8.13110579 36.1264648,8.72411744 36.1264648,9.45556641 C36.1264648,10.2280312 36.1110841,11.1440377 36.0803223,12.2036133 C36.0495604,13.2631889 36.0341797,13.9604475 36.0341797,14.2954102 C36.0341797,14.6030289 36.0803218,14.8457022 36.1726074,15.0234375 C36.264893,15.2011728 36.4067373,15.3344722 36.5981445,15.4233398 C36.714356,15.4780276 36.8972155,15.510498 37.1467285,15.520752 C37.3962415,15.5310059 37.6235341,15.5361328 37.8286133,15.5361328 L37.8286133,16.284668 Z M32.7324219,10.9423828 C32.3496075,11.0722663 31.9702167,11.2209464 31.5942383,11.3884277 C31.2182598,11.555909 30.9106457,11.7319327 30.6713867,11.9165039 C30.4184558,12.1079111 30.2202156,12.3522934 30.0766602,12.6496582 C29.9331048,12.947023 29.8613281,13.2973613 29.8613281,13.7006836 C29.8613281,14.2338894 29.9826648,14.620116 30.2253418,14.859375 C30.4680188,15.098634 30.7670881,15.2182617 31.1225586,15.2182617 C31.498537,15.2182617 31.8078601,15.1413582 32.0505371,14.9875488 C32.2932141,14.8337395 32.506835,14.6440441 32.6914062,14.418457 L32.7324219,10.9423828 Z M58.9926758,16.5 L52.8813477,16.5 L52.8813477,15.7514648 C53.031739,15.7309569 53.188964,15.7138673 53.3530273,15.7001953 C53.5170907,15.6865234 53.653808,15.652344 53.7631836,15.5976562 C53.913575,15.5292965 54.0092771,15.4147957 54.050293,15.2541504 C54.0913088,15.0935051 54.1118164,14.88672 54.1118164,14.6337891 L54.1118164,9.84521484 C54.1118164,9.14110976 53.9870618,8.61303887 53.7375488,8.26098633 C53.4880359,7.90893379 53.1308617,7.73291016 52.6660156,7.73291016 C52.3720688,7.73291016 52.1105968,7.77905227 51.8815918,7.87133789 C51.6525867,7.96362351 51.4423838,8.07812432 51.2509766,8.21484375 C51.0527334,8.35839916 50.8989263,8.50195241 50.7895508,8.64550781 C50.6801752,8.78906322 50.587891,8.91210886 50.5126953,9.01464844 L50.5126953,14.5209961 C50.5126953,14.7670911 50.5417478,14.9670402 50.5998535,15.1208496 C50.6579593,15.274659 50.7656242,15.3959956 50.9228516,15.4848633 C51.0322271,15.546387 51.1569817,15.601074 51.2971191,15.6489258 C51.4372566,15.6967776 51.5859367,15.7309569 51.7431641,15.7514648 L51.7431641,16.5 L45.8881836,16.5 L45.8881836,15.7514648 C46.0180671,15.7377929 46.175292,15.7207032 46.3598633,15.7001953 C46.5444345,15.6796874 46.6811519,15.6455081 46.7700195,15.5976562 C46.9135749,15.5224606 47.0075681,15.4130867 47.052002,15.2695312 C47.0964358,15.1259758 47.1186523,14.9140639 47.1186523,14.6337891 L47.1186523,9.84521484 C47.1186523,9.14110976 46.9938977,8.61303887 46.7443848,8.26098633 C46.4948718,7.90893379 46.1376976,7.73291016 45.6728516,7.73291016 C45.3789048,7.73291016 45.1174328,7.77905227 44.8884277,7.87133789 C44.6594227,7.96362351 44.4492197,8.07812432 44.2578125,8.21484375 C44.0595693,8.35839916 43.9057623,8.50195241 43.7963867,8.64550781 C43.6870112,8.78906322 43.5947269,8.91210886 43.5195312,9.01464844 L43.5195312,14.5209961 C43.5195312,14.7602551 43.5502927,14.9584953 43.6118164,15.1157227 C43.6733402,15.27295 43.7827141,15.3959956 43.9399414,15.4848633 C44.049317,15.546387 44.1740716,15.601074 44.314209,15.6489258 C44.4543464,15.6967776 44.6030266,15.7309569 44.7602539,15.7514648 L44.7602539,16.5 L38.6181641,16.5 L38.6181641,15.7514648 C38.7958993,15.7377929 38.970214,15.7207032 39.1411133,15.7001953 C39.3120126,15.6796874 39.4589838,15.6455081 39.5820312,15.5976562 C39.8007823,15.5156246 39.9511715,15.3977058 40.0332031,15.2438965 C40.1152348,15.0900871 40.15625,14.88672 40.15625,14.6337891 L40.15625,8.66601562 C40.15625,8.44726453 40.0981451,8.23364362 39.9819336,8.02514648 C39.8657221,7.81664935 39.7255868,7.65429746 39.5615234,7.53808594 C39.4384759,7.45605428 39.2829599,7.38769559 39.0949707,7.33300781 C38.9069815,7.27832004 38.7001964,7.24072276 38.4746094,7.22021484 L38.4746094,6.47167969 L43.3657227,6.20507812 L43.5195312,6.35888672 L43.5195312,7.8046875 L43.5605469,7.8046875 C43.7519541,7.63378821 43.9792467,7.4304211 44.2424316,7.19458008 C44.5056166,6.95873906 44.7534168,6.76904369 44.9858398,6.62548828 C45.2387708,6.46142496 45.5634746,6.32470758 45.9599609,6.21533203 C46.3564473,6.10595648 46.790525,6.05126953 47.262207,6.05126953 C48.0415078,6.05126953 48.6926243,6.22045729 49.2155762,6.55883789 C49.738528,6.89721849 50.1093739,7.34667688 50.328125,7.90722656 L50.4204102,7.90722656 C50.6186533,7.72265533 50.8613267,7.50561648 51.1484375,7.25610352 C51.4355483,7.00659055 51.6987293,6.80664138 51.9379883,6.65625 C52.2045912,6.48535071 52.5446757,6.34179746 52.958252,6.22558594 C53.3718282,6.10937442 53.8144508,6.05126953 54.2861328,6.05126953 C55.3183645,6.05126953 56.1130343,6.35546571 56.670166,6.96386719 C57.2272977,7.57226867 57.5058594,8.43700611 57.5058594,9.55810547 L57.5058594,14.5415039 C57.5058594,14.7944349 57.5434567,14.997802 57.6186523,15.1516113 C57.693848,15.3054207 57.8305654,15.4233394 58.0288086,15.5053711 C58.1381841,15.5532229 58.2731926,15.601074 58.4338379,15.6489258 C58.5944832,15.6967776 58.7807607,15.7309569 58.9926758,15.7514648 L58.9926758,16.5 Z M66.190918,16.5 L59.7617188,16.5 L59.7617188,15.7514648 C59.939454,15.7377929 60.1120597,15.7207032 60.279541,15.7001953 C60.4470223,15.6796874 60.5957025,15.6455081 60.7255859,15.5976562 C60.944337,15.5156246 61.0930172,15.3977058 61.1716309,15.2438965 C61.2502445,15.0900871 61.2895508,14.88672 61.2895508,14.6337891 L61.2895508,3.27246094 C61.2895508,3.01269401 61.2365728,2.77172963 61.1306152,2.54956055 C61.0246577,2.32739147 60.8828134,2.15820371 60.7050781,2.04199219 C60.5683587,1.95312456 60.3615736,1.86767619 60.0847168,1.78564453 C59.8078599,1.70361287 59.5634776,1.65576179 59.3515625,1.64208984 L59.3515625,0.893554688 L64.5092773,0.626953125 L64.6630859,0.791015625 L64.6630859,14.5004883 C64.6630859,14.7534192 64.7075191,14.9584953 64.7963867,15.1157227 C64.8852544,15.27295 65.0288076,15.3959956 65.2270508,15.4848633 C65.3637702,15.546387 65.5073235,15.601074 65.6577148,15.6489258 C65.8081062,15.6967776 65.9858388,15.7309569 66.190918,15.7514648 L66.190918,16.5 Z M78.1982422,14.0493164 C77.9589832,14.4389668 77.6701677,14.8063948 77.3317871,15.1516113 C76.9934065,15.4968279 76.6088889,15.7924792 76.1782227,16.0385742 C75.7202126,16.2983411 75.2570824,16.4948724 74.7888184,16.6281738 C74.3205543,16.7614753 73.7822296,16.828125 73.1738281,16.828125 C72.1621043,16.828125 71.288822,16.6845717 70.5539551,16.3974609 C69.8190881,16.1103501 69.2124047,15.7241235 68.7338867,15.2387695 C68.2553687,14.7534155 67.8981945,14.1809115 67.6623535,13.5212402 C67.4265125,12.861569 67.3085938,12.1455117 67.3085938,11.3730469 C67.3085938,10.6757778 67.4367663,10.0075716 67.6931152,9.3684082 C67.9494642,8.72924485 68.3134742,8.16015875 68.7851562,7.66113281 C69.2500023,7.17577882 69.8361781,6.78271635 70.5437012,6.48193359 C71.2512242,6.18115084 72.0424761,6.03076172 72.9174805,6.03076172 C73.8745165,6.03076172 74.6606415,6.14697149 75.2758789,6.37939453 C75.8911164,6.61181757 76.4003886,6.93310342 76.8037109,7.34326172 C77.1933613,7.7329121 77.4770499,8.1926243 77.6547852,8.72241211 C77.8325204,9.25219991 77.9213867,9.80761428 77.9213867,10.3886719 L77.9213867,11.0551758 L70.9897461,11.0551758 C70.9897461,12.45655 71.2597629,13.5229456 71.7998047,14.2543945 C72.3398465,14.9858435 73.197748,15.3515625 74.3735352,15.3515625 C75.0161165,15.3515625 75.5937474,15.1755389 76.1064453,14.8234863 C76.6191432,14.4714338 77.0566388,14.0253933 77.4189453,13.4853516 L78.1982422,14.0493164 Z M74.28125,10.152832 C74.28125,9.74267373 74.2607424,9.32226778 74.2197266,8.89160156 C74.1787107,8.46093535 74.1069341,8.10888809 74.0043945,7.83544922 C73.888183,7.51415855 73.7292491,7.2714852 73.5275879,7.10742188 C73.3259267,6.94335855 73.0712906,6.86132812 72.7636719,6.86132812 C72.2373021,6.86132812 71.8168961,7.12792702 71.5024414,7.66113281 C71.1879867,8.1943386 71.01709,9.03856844 70.9897461,10.1938477 L74.28125,10.152832 Z M83.9301758,16.8486328 C83.2670865,16.8486328 82.6193879,16.7512217 81.9870605,16.5563965 C81.3547332,16.3615713 80.8642596,16.1547863 80.515625,15.9360352 L80.2080078,16.6333008 L79.4082031,16.6333008 L79.2749023,12.8085938 L80.0234375,12.8085938 C80.1259771,13.1162125 80.2968738,13.4631328 80.5361328,13.8493652 C80.7753918,14.2355976 81.0488266,14.582518 81.3564453,14.8901367 C81.677736,15.1977554 82.0451639,15.4575185 82.4587402,15.6694336 C82.8723165,15.8813487 83.314939,15.9873047 83.7866211,15.9873047 C84.4086945,15.9873047 84.8718247,15.865968 85.1760254,15.623291 C85.4802261,15.380614 85.6323242,15.0063502 85.6323242,14.5004883 C85.6323242,14.2270494 85.5639655,14.0014657 85.4272461,13.8237305 C85.2905267,13.6459952 85.1025403,13.4921881 84.8632812,13.3623047 C84.5966784,13.2255853 84.3044449,13.1093755 83.9865723,13.0136719 C83.6686996,12.9179683 83.2773461,12.8017585 82.8125,12.6650391 C82.3476539,12.5283196 81.9494645,12.3898933 81.6179199,12.2497559 C81.2863753,12.1096184 80.9428729,11.8891617 80.5874023,11.5883789 C80.2797836,11.321776 80.0336923,11.0004902 79.8491211,10.6245117 C79.6645499,10.2485333 79.5722656,9.80078385 79.5722656,9.28125 C79.5722656,8.31737799 79.9772909,7.53808891 80.7873535,6.94335938 C81.5974162,6.34862984 82.6586848,6.05126953 83.9711914,6.05126953 C84.5932648,6.05126953 85.1657689,6.11450132 85.6887207,6.2409668 C86.2116725,6.36743227 86.6508771,6.50585862 87.0063477,6.65625 L87.2216797,6.05126953 L88.0009766,6.05126953 L88.1650391,9.54785156 L87.4370117,9.54785156 C87.1977527,8.83691051 86.7876006,8.22339125 86.206543,7.70727539 C85.6254854,7.19115953 85.0000033,6.93310547 84.3300781,6.93310547 C83.8037083,6.93310547 83.3901382,7.04247937 83.0893555,7.26123047 C82.7885727,7.47998156 82.6381836,7.78417774 82.6381836,8.17382812 C82.6381836,8.69336197 82.8586404,9.06933478 83.2995605,9.30175781 C83.7404807,9.53418085 84.3574179,9.75292866 85.1503906,9.95800781 C86.3740296,10.2724625 87.2695284,10.7014133 87.8369141,11.244873 C88.4042997,11.7883328 88.6879883,12.4804645 88.6879883,13.3212891 C88.6879883,14.4423884 88.2487837,15.3105438 87.3703613,15.9257812 C86.491939,16.5410187 85.3452219,16.8486328 83.9301758,16.8486328 Z M94.6967773,16.8486328 C94.0336881,16.8486328 93.3859895,16.7512217 92.7536621,16.5563965 C92.1213347,16.3615713 91.6308611,16.1547863 91.2822266,15.9360352 L90.9746094,16.6333008 L90.1748047,16.6333008 L90.0415039,12.8085938 L90.7900391,12.8085938 C90.8925786,13.1162125 91.0634754,13.4631328 91.3027344,13.8493652 C91.5419934,14.2355976 91.8154281,14.582518 92.1230469,14.8901367 C92.4443375,15.1977554 92.8117655,15.4575185 93.2253418,15.6694336 C93.6389181,15.8813487 94.0815406,15.9873047 94.5532227,15.9873047 C95.1752961,15.9873047 95.6384262,15.865968 95.942627,15.623291 C96.2468277,15.380614 96.3989258,15.0063502 96.3989258,14.5004883 C96.3989258,14.2270494 96.3305671,14.0014657 96.1938477,13.8237305 C96.0571282,13.6459952 95.8691418,13.4921881 95.6298828,13.3623047 C95.3632799,13.2255853 95.0710465,13.1093755 94.7531738,13.0136719 C94.4353011,12.9179683 94.0439476,12.8017585 93.5791016,12.6650391 C93.1142555,12.5283196 92.7160661,12.3898933 92.3845215,12.2497559 C92.0529769,12.1096184 91.7094744,11.8891617 91.3540039,11.5883789 C91.0463852,11.321776 90.8002939,11.0004902 90.6157227,10.6245117 C90.4311514,10.2485333 90.3388672,9.80078385 90.3388672,9.28125 C90.3388672,8.31737799 90.7438924,7.53808891 91.5539551,6.94335938 C92.3640177,6.34862984 93.4252864,6.05126953 94.737793,6.05126953 C95.3598664,6.05126953 95.9323704,6.11450132 96.4553223,6.2409668 C96.9782741,6.36743227 97.4174787,6.50585862 97.7729492,6.65625 L97.9882812,6.05126953 L98.7675781,6.05126953 L98.9316406,9.54785156 L98.2036133,9.54785156 C97.9643543,8.83691051 97.5542021,8.22339125 96.9731445,7.70727539 C96.3920869,7.19115953 95.7666049,6.93310547 95.0966797,6.93310547 C94.5703099,6.93310547 94.1567398,7.04247937 93.855957,7.26123047 C93.5551743,7.47998156 93.4047852,7.78417774 93.4047852,8.17382812 C93.4047852,8.69336197 93.6252419,9.06933478 94.0661621,9.30175781 C94.5070823,9.53418085 95.1240195,9.75292866 95.9169922,9.95800781 C97.1406311,10.2724625 98.03613,10.7014133 98.6035156,11.244873 C99.1709013,11.7883328 99.4545898,12.4804645 99.4545898,13.3212891 C99.4545898,14.4423884 99.0153853,15.3105438 98.1369629,15.9257812 C97.2585405,16.5410187 96.1118235,16.8486328 94.6967773,16.8486328 Z" id="Seamless" fill-rule="nonzero"></path>
                </g>
            </g>
        </g>
    </g>
</svg>